<svg width="39" height="40" viewBox="0 0 39 40" fill="none" xmlns="http://www.w3.org/2000/svg">
<g clip-path="url(#clip0_26_549)">
<path d="M0.571289 29.0463C0.886688 29.0463 1.14258 28.7933 1.14258 28.4809V12.0109H34.8965V18.2268C34.8965 18.5392 35.1524 18.7922 35.4678 18.7922C35.7835 18.7922 36.0391 18.5392 36.0391 18.2268V7.0511C36.0391 5.15526 34.4809 3.61285 32.5659 3.61285H31.0677V2.91247C31.0677 2.15496 30.4452 1.53882 29.68 1.53882H28.6186C27.8536 1.53882 27.2311 2.15496 27.2311 2.91247V3.61285H23.4422V2.91247C23.4422 2.15496 22.8197 1.53882 22.0544 1.53882H20.9931C20.2281 1.53882 19.6056 2.15496 19.6056 2.91247V3.61285H15.8164V2.91247C15.8164 2.15496 15.1939 1.53882 14.4286 1.53882H13.3676C12.6023 1.53882 11.9798 2.15496 11.9798 2.91247V3.61285H8.19086V2.91247C8.19086 2.15496 7.56839 1.53882 6.8031 1.53882H5.74205C4.97676 1.53882 4.35429 2.15496 4.35429 2.91247V3.61285H3.47356C1.55825 3.61285 0 5.15526 0 7.0511V28.4809C0 28.7933 0.25589 29.0463 0.571289 29.0463ZM28.3737 2.91247C28.3737 2.77876 28.4838 2.66978 28.6189 2.66978H29.6803C29.8153 2.66978 29.9251 2.77876 29.9251 2.91247V5.65978C29.9251 5.79349 29.8153 5.90246 29.6803 5.90246H28.6189C28.4838 5.90246 28.3737 5.79379 28.3737 5.65978V2.91247ZM20.7482 2.91247C20.7482 2.77876 20.858 2.66978 20.9931 2.66978H22.0544C22.1895 2.66978 22.2996 2.77876 22.2996 2.91247V5.65978C22.2996 5.79349 22.1895 5.90246 22.0544 5.90246H20.9931C20.858 5.90246 20.7482 5.79379 20.7482 5.65978V2.91247ZM13.1224 2.91247C13.1224 2.77876 13.2325 2.66978 13.3676 2.66978H14.4289C14.564 2.66978 14.6741 2.77876 14.6741 2.91247V5.65978C14.6741 5.79349 14.564 5.90246 14.4289 5.90246H13.3676C13.2325 5.90246 13.1224 5.79379 13.1224 5.65978V2.91247ZM5.49687 2.91247C5.49687 2.77876 5.60696 2.66978 5.74205 2.66978H6.8034C6.93848 2.66978 7.04828 2.77876 7.04828 2.91247V5.65978C7.04828 5.79349 6.93848 5.90246 6.8034 5.90246H5.74205C5.60696 5.90246 5.49687 5.79379 5.49687 5.65978V2.91247ZM3.47356 4.74381H4.35429V5.65978C4.35429 6.41729 4.97676 7.03343 5.74205 7.03343H6.8034C7.56839 7.03343 8.19086 6.41729 8.19086 5.65978V4.74381H11.9801V5.65978C11.9801 6.41729 12.6026 7.03343 13.3676 7.03343H14.4289C15.1942 7.03343 15.8167 6.41729 15.8167 5.65978V4.74381H19.6056V5.65978C19.6056 6.41729 20.2281 7.03343 20.9934 7.03343H22.0547C22.8197 7.03343 23.4422 6.41729 23.4422 5.65978V4.74381H27.2311V5.65978C27.2311 6.41729 27.8536 7.03343 28.6189 7.03343H29.6803C30.4452 7.03343 31.0677 6.41729 31.0677 5.65978V4.74381H32.5659C33.8513 4.74381 34.8968 5.77876 34.8968 7.0511V10.8799H1.14258V7.0511C1.14258 5.77876 2.18816 4.74381 3.47356 4.74381Z" fill="#F9A82F"/>
<path d="M6.46777 34.3056H1.48624C1.29671 34.3056 1.14258 34.153 1.14258 33.9654V31.0582C1.14258 30.7457 0.886688 30.4927 0.571289 30.4927C0.25589 30.4927 0 30.7457 0 31.0582V33.9654C0 34.7765 0.666801 35.4365 1.48624 35.4365H6.46777C6.78316 35.4365 7.03905 35.1832 7.03905 34.871C7.03905 34.5586 6.78316 34.3056 6.46777 34.3056Z" fill="#F9A82F"/>
<path d="M6.44872 13.6602H4.46289C4.14749 13.6602 3.8916 13.9134 3.8916 14.2256C3.8916 14.5381 4.14749 14.7911 4.46289 14.7911H6.44872C6.76411 14.7911 7.02 14.5381 7.02 14.2256C7.02 13.9134 6.76411 13.6602 6.44872 13.6602Z" fill="#F9A82F"/>
<path d="M10.5656 14.7911H12.5514C12.8668 14.7911 13.1227 14.5381 13.1227 14.2256C13.1227 13.9134 12.8668 13.6602 12.5514 13.6602H10.5656C10.2502 13.6602 9.99426 13.9134 9.99426 14.2256C9.99426 14.5381 10.2502 14.7911 10.5656 14.7911Z" fill="#F9A82F"/>
<path d="M16.6683 14.7911H18.6538C18.9692 14.7911 19.2251 14.5381 19.2251 14.2256C19.2251 13.9134 18.9692 13.6602 18.6538 13.6602H16.6683C16.3526 13.6602 16.097 13.9134 16.097 14.2256C16.097 14.5381 16.3526 14.7911 16.6683 14.7911Z" fill="#F9A82F"/>
<path d="M22.7706 14.7911H24.7565C25.0719 14.7911 25.3277 14.5381 25.3277 14.2256C25.3277 13.9134 25.0719 13.6602 24.7565 13.6602H22.7706C22.4552 13.6602 22.1993 13.9134 22.1993 14.2256C22.1993 14.5381 22.4552 14.7911 22.7706 14.7911Z" fill="#F9A82F"/>
<path d="M30.8588 13.6602H28.8733C28.5576 13.6602 28.302 13.9134 28.302 14.2256C28.302 14.5381 28.5576 14.7911 28.8733 14.7911H30.8588C31.1742 14.7911 31.4301 14.5381 31.4301 14.2256C31.4301 13.9134 31.1742 13.6602 30.8588 13.6602Z" fill="#F9A82F"/>
<path d="M6.44872 16.5037H4.46289C4.14749 16.5037 3.8916 16.7567 3.8916 17.0691C3.8916 17.3816 4.14749 17.6346 4.46289 17.6346H6.44872C6.76411 17.6346 7.02 17.3816 7.02 17.0691C7.02 16.7567 6.76411 16.5037 6.44872 16.5037Z" fill="#F9A82F"/>
<path d="M10.5656 17.6346H12.5514C12.8668 17.6346 13.1227 17.3816 13.1227 17.0691C13.1227 16.7567 12.8668 16.5037 12.5514 16.5037H10.5656C10.2502 16.5037 9.99426 16.7567 9.99426 17.0691C9.99426 17.3816 10.2502 17.6346 10.5656 17.6346Z" fill="#F9A82F"/>
<path d="M16.6683 17.6346H18.6538C18.9692 17.6346 19.2251 17.3816 19.2251 17.0691C19.2251 16.7567 18.9692 16.5037 18.6538 16.5037H16.6683C16.3526 16.5037 16.097 16.7567 16.097 17.0691C16.097 17.3816 16.3526 17.6346 16.6683 17.6346Z" fill="#F9A82F"/>
<path d="M22.7706 17.6346H24.7565C25.0719 17.6346 25.3277 17.3816 25.3277 17.0691C25.3277 16.7567 25.0719 16.5037 24.7565 16.5037H22.7706C22.4552 16.5037 22.1993 16.7567 22.1993 17.0691C22.1993 17.3816 22.4552 17.6346 22.7706 17.6346Z" fill="#F9A82F"/>
<path d="M30.8588 16.5037H28.8733C28.5576 16.5037 28.302 16.7567 28.302 17.0691C28.302 17.3816 28.5576 17.6346 28.8733 17.6346H30.8588C31.1742 17.6346 31.4301 17.3816 31.4301 17.0691C31.4301 16.7567 31.1742 16.5037 30.8588 16.5037Z" fill="#F9A82F"/>
<path d="M10.5795 28.736L13.5169 31.6435C13.9418 32.0641 14.5066 32.2956 15.1076 32.2956C15.7086 32.2956 16.2737 32.0641 16.6983 31.6435L24.7425 23.6811C25.6196 22.8129 25.6196 21.4001 24.7425 20.5318C23.8653 19.6636 22.438 19.6636 21.5608 20.5318L15.1076 26.9194L13.7609 25.5867C12.884 24.7184 11.4567 24.7184 10.5792 25.5867C9.70238 26.4549 9.70238 27.8678 10.5795 28.736ZM11.3874 26.3863C11.6031 26.1728 11.8867 26.0659 12.1702 26.0659C12.4538 26.0659 12.7373 26.1728 12.9531 26.3863L14.7035 28.119C14.9267 28.3399 15.2882 28.3399 15.5114 28.119L22.3686 21.3317C22.8007 20.9044 23.5029 20.9044 23.9343 21.3314C24.3661 21.7588 24.3661 22.4542 23.9343 22.8815L15.8904 30.8436C15.6813 31.0507 15.4034 31.1647 15.1076 31.1647C14.8118 31.1647 14.5339 31.0507 14.3248 30.8436L11.3874 27.9361C10.9556 27.5087 10.9556 26.8137 11.3874 26.3863Z" fill="#F9A82F"/>
<path d="M36.0391 25.3164V20.804C36.0391 20.4915 35.7835 20.2385 35.4678 20.2385C35.1524 20.2385 34.8965 20.4915 34.8965 20.804V24.5951C33.8548 24.0605 32.6727 23.7581 31.4206 23.7581C27.2412 23.7581 23.8412 27.1236 23.8412 31.2604C23.8412 32.344 24.0748 33.3742 24.494 34.3055H9.07098C8.75558 34.3055 8.49969 34.5585 8.49969 34.871C8.49969 35.1832 8.75558 35.4365 9.07098 35.4365H25.1269C26.4888 37.4413 28.8016 38.7628 31.4206 38.7628C35.5999 38.7628 39 35.3973 39 31.2604C39 28.843 37.8384 26.6892 36.0391 25.3164ZM31.4206 37.6318C27.8712 37.6318 24.9838 34.7738 24.9838 31.2604C24.9838 27.7471 27.8715 24.889 31.4206 24.889C34.9697 24.889 37.8574 27.7471 37.8574 31.2604C37.8574 34.7738 34.9697 37.6318 31.4206 37.6318Z" fill="#F9A82F"/>
<path d="M31.4206 25.7061C28.3264 25.7061 25.8092 28.198 25.8092 31.2605C25.8092 34.3232 28.3264 36.8148 31.4206 36.8148C34.5148 36.8148 37.0318 34.3232 37.0318 31.2605C37.0318 28.198 34.5145 25.7061 31.4206 25.7061ZM31.9321 35.6538C31.9699 35.5782 31.9919 35.4933 31.9919 35.4032V34.7143C31.9919 34.4021 31.736 34.1488 31.4206 34.1488C31.1052 34.1488 30.8493 34.4021 30.8493 34.7143V35.4032C30.8493 35.4933 30.8711 35.5782 30.9091 35.6538C28.8531 35.4209 27.2175 33.8019 26.9821 31.7667C27.0583 31.8044 27.1443 31.8259 27.2353 31.8259H27.931C28.2467 31.8259 28.5023 31.5729 28.5023 31.2605C28.5023 30.948 28.2467 30.695 27.931 30.695H27.2353C27.1443 30.695 27.0583 30.7168 26.9821 30.7542C27.2175 28.719 28.8531 27.1 30.9091 26.8671C30.8711 26.9428 30.8493 27.0276 30.8493 27.1177V27.8066C30.8493 28.1191 31.1052 28.3721 31.4206 28.3721C31.736 28.3721 31.9919 28.1191 31.9919 27.8066V27.1177C31.9919 27.0276 31.9699 26.9428 31.9321 26.8671C33.9882 27.1 35.6238 28.719 35.8591 30.7542C35.7827 30.7168 35.697 30.695 35.6059 30.695H34.91C34.5946 30.695 34.3387 30.948 34.3387 31.2605C34.3387 31.5729 34.5946 31.8259 34.91 31.8259H35.6059C35.697 31.8259 35.7827 31.8044 35.8591 31.7667C35.6235 33.8019 33.9882 35.4209 31.9321 35.6538Z" fill="#F9A82F"/>
<path d="M32.6798 30.695H31.9919V30.115C31.9919 29.8029 31.736 29.5496 31.4206 29.5496C31.1049 29.5496 30.8493 29.8029 30.8493 30.115V31.2604C30.8493 31.5729 31.1049 31.8259 31.4206 31.8259H32.6798C32.9952 31.8259 33.2511 31.5729 33.2511 31.2604C33.2511 30.948 32.9952 30.695 32.6798 30.695Z" fill="#F9A82F"/>
</g>
<defs>
<clipPath id="clip0_26_549">
<rect width="39" height="38.6037" fill="white" transform="translate(0 0.860352)"/>
</clipPath>
</defs>
</svg>
