<svg width="61" height="40" viewBox="0 0 61 40" fill="none" xmlns="http://www.w3.org/2000/svg">
<path d="M11.9998 29.5657C10.8973 29.5657 10 30.898 10 32.5349C10 34.1724 10.8973 35.5047 11.9998 35.5047C13.1027 35.5047 14 34.1724 14 32.5349C14 30.898 13.1027 29.5657 11.9998 29.5657ZM11.9998 33.6119C11.6001 33.6119 11.2748 33.1289 11.2748 32.5349C11.2748 31.9415 11.6001 31.4584 11.9998 31.4584C12.3999 31.4584 12.7252 31.9415 12.7252 32.5349C12.7252 33.1289 12.3999 33.6119 11.9998 33.6119Z" fill="#F9A82F"/>
<path d="M50.5 29.5657C49.1213 29.5657 48 30.898 48 32.5349C48 34.1724 49.1213 35.5047 50.5 35.5047C51.8782 35.5047 53 34.1724 53 32.5349C53 30.898 51.8782 29.5657 50.5 29.5657ZM50.5 33.6119C49.9999 33.6119 49.5936 33.1289 49.5936 32.5349C49.5936 31.9415 50.0003 31.4584 50.5 31.4584C50.9997 31.4584 51.4064 31.9415 51.4064 32.5349C51.4064 33.1289 50.9997 33.6119 50.5 33.6119Z" fill="#F9A82F"/>
<path d="M57.7381 21.3195L46.4662 19.8333L43.437 10.096C42.9483 8.52649 41.5047 7.47203 39.8446 7.47203H32.3485V3.63298C32.3485 2.10398 31.091 0.860352 29.545 0.860352H2.80353C1.25796 0.860352 0 2.10398 0 3.63298V31.0242C0 32.5532 1.25796 33.7968 2.80353 33.7968H5.79228C6.22975 36.9924 9.00489 39.464 12.3539 39.464C15.7033 39.464 18.478 36.9924 18.9159 33.7968H43.9941C44.432 36.9924 47.2067 39.464 50.5561 39.464C53.9051 39.464 56.6798 36.9924 57.1177 33.7968H57.241C59.3139 33.7968 61 32.1292 61 30.0797V25.0044C61 23.1491 59.5978 21.5648 57.7381 21.3195ZM44.5712 19.7509H36.2304C36.1964 19.7509 36.169 19.7233 36.169 19.6897V13.078C36.169 13.0444 36.1964 13.0173 36.2304 13.0173H42.476L44.5712 19.7509ZM12.3539 37.6966C9.68762 37.6966 7.51842 35.5513 7.51749 32.9145C7.51749 32.914 7.51749 32.9135 7.51749 32.9131C7.51749 32.9126 7.51749 32.9122 7.51749 32.9117C7.51842 30.2749 9.68762 28.1296 12.3539 28.1296C13.2046 28.1296 14.0404 28.3505 14.7716 28.7693C15.1988 29.0133 15.7456 28.8692 15.9928 28.4467C16.2399 28.0242 16.0938 27.4838 15.6665 27.239C14.6636 26.6655 13.5183 26.3622 12.3539 26.3622C9.00489 26.3622 6.23022 28.8338 5.79228 32.0294H2.80353C2.24319 32.0294 1.78711 31.5783 1.78711 31.0242V3.63298C1.78711 3.07882 2.24319 2.62776 2.80353 2.62776H29.545C30.1053 2.62776 30.5614 3.07882 30.5614 3.63298V10.2451C30.5614 10.7335 30.9617 11.1288 31.455 11.1288C31.9483 11.1288 32.3485 10.7335 32.3485 10.2451V9.23944H39.8446C40.7154 9.23944 41.4726 9.79268 41.7285 10.6161L41.9259 11.2503H36.2304C35.2107 11.2503 34.3814 12.0701 34.3814 13.0785V19.6902C34.3814 20.6982 35.2107 21.5183 36.2304 21.5183H45.7216L57.5016 23.0717C58.2933 23.1762 58.9271 23.7433 59.1375 24.4737H58.1965C57.7027 24.4737 57.3029 24.8691 57.3029 25.3574C57.3029 25.8453 57.7027 26.2411 58.1965 26.2411H59.2129V28.2515H55.204C54.007 27.0848 52.3656 26.3626 50.5561 26.3626C47.2067 26.3626 44.432 28.8342 43.9941 32.0298H32.3485V30.0189H41.662C42.1553 30.0189 42.5555 29.6236 42.5555 29.1352C42.5555 28.6474 42.1553 28.2515 41.662 28.2515H32.3485V14.023C32.3485 13.5346 31.9483 13.1393 31.455 13.1393C30.9617 13.1393 30.5614 13.5346 30.5614 14.023V32.0294H18.9173C18.8573 31.5894 18.753 31.1567 18.6032 30.7365C18.4393 30.2762 17.9288 30.0341 17.4634 30.1961C16.998 30.3586 16.7537 30.8631 16.9175 31.3233C17.099 31.8328 17.1907 32.3677 17.1907 32.9131C17.1907 35.5508 15.021 37.6966 12.3539 37.6966ZM50.5561 37.6966C47.8889 37.6966 45.7193 35.5508 45.7193 32.9131C45.7193 30.2753 47.8889 28.1296 50.5561 28.1296C53.2228 28.1296 55.3929 30.2753 55.3929 32.9131C55.3929 35.5508 53.2228 37.6966 50.5561 37.6966ZM57.2415 32.0294H57.1177C57.0204 31.3169 56.8068 30.6403 56.4964 30.0189H59.2129V30.0797C59.2129 31.1549 58.3286 32.0294 57.2415 32.0294Z" fill="#F9A82F"/>
</svg>
