<svg width="40" height="41" viewBox="0 0 40 41" fill="none" xmlns="http://www.w3.org/2000/svg">
<path d="M20 40.0831C9.22562 40.0831 0.499999 31.4389 0.499999 20.7864C0.5 10.1339 9.22562 1.48962 20 1.48962C30.7744 1.48962 39.5 10.1339 39.5 20.7864C39.5 31.4389 30.7744 40.0831 20 40.0831Z" stroke="#F9A82F"/>
<path d="M20 36.1238C11.4348 36.1238 4.5 29.2522 4.5 20.7864C4.5 12.3206 11.4348 5.44897 20 5.44897C28.5652 5.44897 35.5 12.3206 35.5 20.7864C35.5 29.2522 28.5652 36.1238 20 36.1238Z" stroke="#F9A82F"/>
<path d="M39 20.7864L32.1389 20.7864L32.1389 23.7559L32.1389 17.8169M0.999999 20.7864L7.86111 20.7864M7.86111 23.7559L7.86111 17.8169" stroke="#F9A82F"/>
<ellipse cx="25" cy="20.7864" rx="2.96951" ry="3" transform="rotate(90 25 20.7864)" fill="#F9A82F"/>
<ellipse cx="15" cy="20.7864" rx="2.96951" ry="3" transform="rotate(90 15 20.7864)" fill="#F9A82F"/>
</svg>
