<svg width="41" height="41" viewBox="0 0 41 41" fill="none" xmlns="http://www.w3.org/2000/svg">
<g clip-path="url(#clip0_26_407)">
<path d="M0.129684 3.7229L2.86406 8.45915C2.95629 8.61919 3.11067 8.73498 3.2912 8.7798L5.84223 9.41107L14.5917 18.0716L15.5585 17.115L6.67205 8.31914C6.58459 8.2323 6.47493 8.17079 6.35485 8.141L3.90365 7.53227L1.57561 3.49745L3.57155 1.52178L7.64949 3.82839L8.26475 6.25469C8.29456 6.37382 8.35699 6.48265 8.44444 6.56921L17.3309 15.3653L18.2973 14.4084L9.54786 5.74783L8.9101 3.22412C8.86483 3.04514 8.74785 2.89206 8.58616 2.80048L3.80101 0.0941754C3.53415 -0.0561285 3.1984 -0.011594 2.98075 0.203007L0.246663 2.90959C0.0267655 3.12364 -0.0210382 3.45653 0.129684 3.7229Z" fill="#F9A82F"/>
<path d="M28.549 13.3351L13.5108 28.2207L12.5441 27.2638L27.5826 12.3784L28.549 13.3351Z" fill="#F9A82F"/>
<path d="M10.8789 28.7474C10.7551 28.5436 10.533 28.4192 10.2928 28.4192H6.19156C5.9517 28.4192 5.72927 28.5436 5.60582 28.7474L3.55504 32.1303C3.42485 32.3446 3.42485 32.6127 3.55504 32.8273L5.60582 36.2102C5.72927 36.4137 5.9517 36.5384 6.19156 36.5384H10.2928C10.533 36.5384 10.7551 36.4137 10.8789 36.2102L12.9294 32.8273C13.0595 32.6127 13.0595 32.3446 12.9294 32.1303L10.8789 28.7474ZM9.90619 35.1851H6.57849L4.93798 32.4788L6.57849 29.7722H9.90619L11.5467 32.4788L9.90619 35.1851Z" fill="#F9A82F"/>
<path d="M32.8512 16.24C37.3658 16.2551 41.0383 12.6444 41.0535 8.17568C41.0557 7.49542 40.9714 6.81794 40.8024 6.15855C40.7113 5.79587 40.3404 5.57515 39.974 5.66533C39.8536 5.69511 39.7439 5.75663 39.6562 5.84319L35.4011 10.0523L32.025 8.93862L30.8991 5.59769L35.1542 1.38501C35.4211 1.12058 35.4208 0.692218 35.1537 0.428072C35.0656 0.340952 34.9548 0.27916 34.8336 0.249656C30.4554 -0.847841 26.0077 1.77552 24.8989 6.109C24.7305 6.76645 24.6464 7.44226 24.6486 8.12057C24.6503 8.65332 24.7057 9.18439 24.8148 9.706L9.84467 24.5237C9.3177 24.416 8.78118 24.3612 8.24324 24.3592C3.71286 24.3592 0.0404053 27.9944 0.0404053 32.4787C0.0404053 36.9628 3.71286 40.5979 8.24324 40.5979C12.7734 40.5979 16.4458 36.9628 16.4458 32.4787C16.4441 31.946 16.3884 31.4149 16.2796 30.8933L19.8635 27.3458L21.4309 28.8973C21.698 29.1615 22.1305 29.1615 22.3976 28.8973L22.7393 28.5588C23.0391 28.2641 23.5236 28.2641 23.8233 28.5588C24.1228 28.8544 24.1234 29.3343 23.8247 29.6307C23.8244 29.631 23.8239 29.6316 23.8233 29.6321L23.4817 29.9703C23.2148 30.2345 23.2148 30.6628 23.4817 30.927L31.6359 38.9983C33.7806 41.1407 37.2736 41.1563 39.438 39.0334C41.6021 36.9105 41.6178 33.4526 39.4731 31.3105C39.4616 31.2988 39.4498 31.2871 39.438 31.2755L31.2838 23.2044C31.0169 22.9403 30.5842 22.9403 30.3173 23.2044L29.9757 23.5426C29.6756 23.8376 29.1914 23.8376 28.8914 23.5426C28.5922 23.247 28.5913 22.7671 28.89 22.471C28.8905 22.4704 28.8911 22.4701 28.8914 22.4696L29.2333 22.1311C29.5002 21.867 29.5002 21.4386 29.2333 21.1745L27.6659 19.623L31.2498 16.0756C31.7767 16.1833 32.3133 16.2384 32.8512 16.24ZM35.5369 39.2449C35.0403 39.2441 34.548 39.1553 34.0831 38.9824L39.4217 33.6979C40.2273 35.8191 39.1433 38.185 37.0003 38.9824C36.5326 39.1564 36.0369 39.2455 35.5369 39.2449ZM27.793 21.6596C27.036 22.5534 27.1547 23.8855 28.0576 24.6345C28.8512 25.2928 30.0077 25.2922 30.8004 24.6326L38.4715 32.2324C38.5547 32.3151 38.6326 32.4022 38.708 32.4907L32.8636 38.2757C32.7739 38.2014 32.6859 38.1243 32.6023 38.0416L24.9253 30.4421C25.6823 29.5483 25.5637 28.2162 24.6607 27.4672C23.8672 26.8086 22.7103 26.8095 21.9176 27.4689L20.8241 26.3864L26.6991 20.5797L27.793 21.6596ZM30.5532 14.8545L15.0466 30.2005C14.8764 30.3686 14.8081 30.6127 14.866 30.8435C15.8038 34.4889 13.5784 38.1967 9.89528 39.1247C6.21243 40.0529 2.46659 37.8501 1.52879 34.2044C0.591273 30.559 2.81668 26.8512 6.49981 25.923C7.61392 25.6424 8.78118 25.6424 9.89528 25.923C10.1284 25.9795 10.3744 25.9118 10.5449 25.7445L26.0479 10.3982C26.2177 10.2301 26.2861 9.98601 26.2276 9.75555C25.2962 6.1527 27.4918 2.48473 31.1317 1.56259C31.8195 1.38863 32.5309 1.32182 33.2395 1.36552L29.6337 4.93608C29.4507 5.117 29.3866 5.38504 29.4684 5.62803L30.8353 9.68791C30.9036 9.88971 31.0639 10.0484 31.2681 10.1154L35.3696 11.4687C35.6148 11.5497 35.8856 11.4865 36.0687 11.3056L39.6745 7.73646C39.6826 7.86561 39.6869 7.99337 39.6869 8.12057C39.706 11.8384 36.6769 14.8676 32.9209 14.8868C32.3403 14.8895 31.7616 14.8188 31.1992 14.6763C30.966 14.6187 30.7194 14.6861 30.5496 14.8542H30.5532V14.8545Z" fill="#F9A82F"/>
<path d="M35.385 34.0299L34.4182 34.9869L27.5829 28.221L28.5494 27.264L35.385 34.0299Z" fill="#F9A82F"/>
</g>
<defs>
<clipPath id="clip0_26_407">
<rect width="41" height="40.5833" fill="white"/>
</clipPath>
</defs>
</svg>
