<svg width="41" height="42" viewBox="0 0 41 42" fill="none" xmlns="http://www.w3.org/2000/svg">
<g clip-path="url(#clip0_26_650)">
<path d="M31.7419 11.3335C34.6589 11.3335 37.0322 8.98422 37.0322 6.09691C37.0322 3.2096 34.6589 0.860352 31.7419 0.860352C28.825 0.860352 26.4516 3.2096 26.4516 6.09691C26.4516 8.98422 28.825 11.3335 31.7419 11.3335ZM31.7419 2.16949C33.9301 2.16949 35.7097 3.93094 35.7097 6.09691C35.7097 8.26288 33.9301 10.0243 31.7419 10.0243C29.5537 10.0243 27.7742 8.26288 27.7742 6.09691C27.7742 3.93094 29.5537 2.16949 31.7419 2.16949Z" fill="#F9A82F"/>
<path d="M36.371 10.0244V11.3336C37.4647 11.3336 38.3548 12.2146 38.3548 13.2973V20.4975H36.371V13.9518H35.0484V20.4975H28.4355V13.9518H27.1129V20.4975H25.129V13.2973C25.129 12.2146 26.0191 11.3336 27.1129 11.3336V10.0244C25.2897 10.0244 23.8065 11.4926 23.8065 13.2973V21.8067H39.6774V13.2973C39.6774 11.4926 38.1942 10.0244 36.371 10.0244Z" fill="#F9A82F"/>
<path d="M4.62902 17.8791H17.8548C19.678 17.8791 21.1613 16.4109 21.1613 14.6062V8.95727L25.9054 3.47852H4.62902C2.80584 3.47852 1.32257 4.94672 1.32257 6.75137V14.6062C1.32257 16.4109 2.80584 17.8791 4.62902 17.8791ZM2.64515 6.75137C2.64515 5.66871 3.53525 4.78766 4.62902 4.78766H23.0301L19.8387 8.47288V14.6062C19.8387 15.6889 18.9486 16.5699 17.8548 16.5699H4.62902C3.53525 16.5699 2.64515 15.6889 2.64515 14.6062V6.75137Z" fill="#F9A82F"/>
<path d="M18.5161 13.9517H17.1935V15.2608H18.5161V13.9517Z" fill="#F9A82F"/>
<path d="M15.871 13.9517H3.96774V15.2608H15.871V13.9517Z" fill="#F9A82F"/>
<path d="M18.5161 11.3335H3.96774V12.6426H18.5161V11.3335Z" fill="#F9A82F"/>
<path d="M18.5161 8.71509H6.61288V10.0242H18.5161V8.71509Z" fill="#F9A82F"/>
<path d="M5.29032 8.71509H3.96774V10.0242H5.29032V8.71509Z" fill="#F9A82F"/>
<path d="M18.5161 6.09692H3.96774V7.40606H18.5161V6.09692Z" fill="#F9A82F"/>
<path d="M3.96774 25.7341C3.96774 28.6214 6.34111 30.9707 9.25806 30.9707C12.175 30.9707 14.5484 28.6214 14.5484 25.7341C14.5484 22.8468 12.175 20.4976 9.25806 20.4976C6.34111 20.4976 3.96774 22.8468 3.96774 25.7341ZM13.2258 25.7341C13.2258 27.9001 11.4463 29.6615 9.25806 29.6615C7.06986 29.6615 5.29032 27.9001 5.29032 25.7341C5.29032 23.5681 7.06986 21.8067 9.25806 21.8067C11.4463 21.8067 13.2258 23.5681 13.2258 25.7341Z" fill="#F9A82F"/>
<path d="M13.8871 29.6614V30.9705C14.9809 30.9705 15.871 31.8516 15.871 32.9342V40.1345H13.8871V33.5888H12.5645V40.1345H5.9516V33.5888H4.62902V40.1345H2.64515V32.9342C2.64515 31.8516 3.53525 30.9705 4.62902 30.9705V29.6614C2.80585 29.6614 1.32257 31.1296 1.32257 32.9342V41.4436H17.1935V32.9342C17.1935 31.1296 15.7103 29.6614 13.8871 29.6614Z" fill="#F9A82F"/>
<path d="M36.371 23.1157H15.0946L19.8387 28.5945V34.2434C19.8387 36.0481 21.322 37.5163 23.1452 37.5163H36.371C38.1941 37.5163 39.6774 36.0481 39.6774 34.2434V26.3886C39.6774 24.5839 38.1941 23.1157 36.371 23.1157ZM38.3548 34.2434C38.3548 35.3261 37.4647 36.2071 36.371 36.2071H23.1452C22.0514 36.2071 21.1613 35.3261 21.1613 34.2434V28.1101L17.9699 24.4249H36.371C37.4647 24.4249 38.3548 25.3059 38.3548 26.3886V34.2434Z" fill="#F9A82F"/>
<path d="M34.3871 33.5889H22.4839V34.898H34.3871V33.5889Z" fill="#F9A82F"/>
<path d="M37.0322 33.5889H35.7097V34.898H37.0322V33.5889Z" fill="#F9A82F"/>
<path d="M37.0322 30.9705H22.4839V32.2796H37.0322V30.9705Z" fill="#F9A82F"/>
<path d="M23.8064 28.3523H22.4839V29.6614H23.8064V28.3523Z" fill="#F9A82F"/>
<path d="M37.0323 28.3523H25.129V29.6614H37.0323V28.3523Z" fill="#F9A82F"/>
<path d="M37.0322 25.7339H22.4839V27.043H37.0322V25.7339Z" fill="#F9A82F"/>
</g>
<defs>
<clipPath id="clip0_26_650">
<rect width="41" height="40.5833" fill="white" transform="translate(0 0.860352)"/>
</clipPath>
</defs>
</svg>
