<svg width="39" height="40" viewBox="0 0 39 40" fill="none" xmlns="http://www.w3.org/2000/svg">
<g clip-path="url(#clip0_26_494)">
<path d="M37.1642 21.8241C37.2086 21.4063 37.4211 21.0386 37.8116 20.7521C38.7096 20.0944 39.1755 19.0454 39.0585 17.9449C38.9418 16.8454 38.2653 15.9156 37.1996 15.4349C36.8133 15.2607 36.5283 14.9449 36.3971 14.5453C36.2659 14.1454 36.3089 13.7238 36.5495 13.3018C37.1007 12.3384 37.0951 11.1907 36.5345 10.2318C35.9746 9.27381 34.9725 8.69794 33.8262 8.69107C33.401 8.68866 33.0105 8.51514 32.7255 8.20178C32.4402 7.88911 32.3065 7.48538 32.3527 7.02049C32.4624 5.91548 31.9861 4.86716 31.0777 4.21604C30.1693 3.56492 29.0151 3.44397 27.9862 3.89305C27.5964 4.06348 27.1663 4.06279 26.7772 3.89099C26.3866 3.71885 26.0982 3.40308 25.9586 2.98458C25.607 1.92836 24.742 1.16076 23.6433 0.929858C22.5453 0.699991 21.4383 1.05424 20.684 1.87785V1.87888C20.1099 2.50629 19.0432 2.50388 18.469 1.87785C17.7144 1.05321 16.6074 0.698273 15.5108 0.929858C14.4122 1.16007 13.5468 1.92836 13.1892 3.00107C13.0556 3.40308 12.7671 3.71885 12.3766 3.89099C11.9878 4.0621 11.5574 4.06348 11.1631 3.89099C10.1377 3.44466 8.98346 3.56492 8.07607 4.21604C7.16764 4.86716 6.69138 5.91548 6.80559 7.06516C6.84724 7.48538 6.7136 7.88911 6.42826 8.20178C6.14362 8.51514 5.75275 8.68866 5.29975 8.69107C4.18166 8.69794 3.17951 9.2745 2.61924 10.2318C2.05898 11.1907 2.05308 12.3384 2.63591 13.3585C2.84488 13.7238 2.88792 14.1454 2.75671 14.5453C2.62549 14.9449 2.3405 15.2607 1.90486 15.4569C0.888472 15.9156 0.211923 16.8454 0.0952887 17.9449C-0.0216929 19.0454 0.444151 20.0944 1.39215 20.7888C1.73268 21.0386 1.94512 21.4063 1.98956 21.8241C2.03399 22.2426 1.90382 22.6463 1.57891 23.0099C0.837792 23.8383 0.60244 24.9622 0.949219 26.0146C1.29565 27.0664 2.15375 27.836 3.28503 28.0824C3.69985 28.1728 4.04524 28.4233 4.25768 28.7871C4.47047 29.1524 4.51698 29.574 4.37119 30.0285C4.03344 31.0865 4.28024 32.2097 5.03142 33.0326C5.78156 33.8549 6.883 34.2132 7.99345 33.983C8.41035 33.8975 8.83003 33.9861 9.17472 34.2342C9.51942 34.4826 9.73533 34.8499 9.78567 35.3007C9.90924 36.4057 10.5952 37.3341 11.6206 37.7849C12.6456 38.2351 13.8009 38.1172 14.7117 37.4668C15.0568 37.2194 15.4775 37.1307 15.8961 37.2194C16.3137 37.3073 16.6626 37.5571 16.8809 37.9286C17.4461 38.89 18.4534 39.4641 19.5771 39.4641C20.7004 39.4641 21.7077 38.89 22.2763 37.9224C22.4915 37.5571 22.84 37.3073 23.2576 37.2194C23.6749 37.1314 24.0953 37.2194 24.4424 37.4668C25.3519 38.1172 26.5078 38.2351 27.5332 37.7849C28.5586 37.3341 29.2445 36.4057 29.3716 35.2701C29.4184 34.8499 29.6343 34.4826 29.979 34.2342C30.3237 33.9861 30.7427 33.8951 31.1742 33.9861C32.2715 34.2084 33.3726 33.8549 34.123 33.0319C34.8742 32.209 35.1203 31.0865 34.7649 29.9753C34.6368 29.574 34.6833 29.1524 34.8961 28.7871C35.1085 28.4233 35.4539 28.1728 35.909 28.0731C37 27.836 37.8581 27.0664 38.2046 26.0146C38.5513 24.9622 38.316 23.8383 37.5318 22.9611C37.25 22.6463 37.1198 22.2426 37.1642 21.8241ZM36.7952 19.4962C36.094 20.0099 35.6396 20.7967 35.548 21.6557C35.4567 22.5151 35.7358 23.3789 36.3578 24.0747C36.7129 24.4729 36.8258 25.011 36.6598 25.5161C36.4936 26.0201 36.0826 26.3885 35.5195 26.5118C34.6663 26.697 33.9262 27.2337 33.4892 27.9828C33.0515 28.7321 32.9518 29.6351 33.233 30.5141C33.3951 31.0215 33.2767 31.5593 32.9171 31.9544C32.5575 32.3478 32.0295 32.52 31.4904 32.4076C30.633 32.2331 29.7329 32.4234 29.0241 32.933C28.3149 33.4425 27.8526 34.2304 27.7526 35.1248C27.6939 35.6543 27.3652 36.0989 26.8733 36.3157C26.3825 36.5301 25.8285 36.4734 25.3935 36.1632C24.6812 35.6543 23.7818 35.4643 22.9206 35.6464C22.0611 35.8264 21.3144 36.3611 20.8684 37.1197C20.5973 37.5808 20.1148 37.8557 19.5771 37.8557C19.0394 37.8557 18.5565 37.5808 18.2819 37.1136C17.8393 36.3611 17.0927 35.8264 16.2332 35.6464C16.0194 35.601 15.8031 35.579 15.5879 35.579C14.9374 35.579 14.2955 35.7807 13.761 36.1632C13.325 36.4741 12.7703 36.5308 12.2805 36.3157C11.7886 36.0989 11.4599 35.6543 11.3977 35.0928C11.3012 34.2304 10.8392 33.4425 10.1297 32.933C9.42084 32.4224 8.52317 32.2324 7.64876 32.4107C7.1246 32.5214 6.59662 32.3478 6.23699 31.9544C5.87702 31.5603 5.75865 31.0215 5.93812 30.4608C6.20193 29.6351 6.10231 28.7321 5.66458 27.9828C5.22755 27.2337 4.48713 26.697 3.59397 26.5025C3.0712 26.3885 2.66021 26.0201 2.49428 25.5161C2.32801 25.011 2.44117 24.4729 2.84002 24.0262C3.41798 23.3789 3.69707 22.5151 3.60578 21.6557C3.51414 20.7967 3.05975 20.0099 2.30857 19.4591C1.87848 19.1444 1.65493 18.641 1.71116 18.1139C1.76705 17.5861 2.09161 17.1408 2.62688 16.899C3.42145 16.5409 4.03205 15.8647 4.30176 15.0432C4.57218 14.2209 4.47984 13.3176 4.01816 12.5102C3.754 12.0477 3.75678 11.4979 4.02545 11.0378C4.29413 10.5791 4.7742 10.3025 5.3369 10.2995C6.21165 10.2946 7.04962 9.92252 7.63557 9.27862C8.22186 8.63437 8.50859 7.77057 8.41834 6.86346C8.36557 6.33329 8.59398 5.83061 9.02928 5.51828C9.46353 5.20629 10.0162 5.14891 10.5122 5.36503C11.3161 5.71516 12.2367 5.71378 13.0375 5.36022C13.8398 5.007 14.4573 4.3308 14.7385 3.48726C14.9065 2.98149 15.3209 2.61384 15.8472 2.50388C16.3727 2.39015 16.9038 2.56195 17.2655 2.95778C17.8557 3.6034 18.6978 3.97346 19.5771 3.97346C20.456 3.97346 21.2981 3.6034 21.8882 2.95778L21.8893 2.95709C22.2503 2.56264 22.7772 2.39325 23.3062 2.5032C23.8321 2.61384 24.247 2.98149 24.4216 3.50513C24.6961 4.3308 25.314 5.007 26.1162 5.36022C26.9174 5.71378 27.8376 5.71619 28.6461 5.36263C29.1373 5.14753 29.6899 5.20698 30.1245 5.51828C30.5598 5.83061 30.7882 6.33329 30.7313 6.90813C30.6448 7.77057 30.9319 8.63437 31.5182 9.27862C32.1042 9.92252 32.9421 10.2946 33.8436 10.2995C34.3799 10.3025 34.8596 10.5791 35.1283 11.0378C35.397 11.4972 35.3998 12.0477 35.104 12.5651C34.6736 13.3176 34.5816 14.2209 34.852 15.0432C35.1217 15.8647 35.7323 16.5409 36.5751 16.9209C37.0625 17.1408 37.3867 17.5861 37.4426 18.1139C37.4988 18.641 37.2753 19.1444 36.7952 19.4962Z" fill="#F9A82F"/>
<path d="M19.5771 6.49121C11.9608 6.49121 5.7649 12.6241 5.7649 20.1627C5.7649 27.7016 11.9608 33.8345 19.5771 33.8345C27.1934 33.8345 33.3892 27.7016 33.3892 20.1627C33.3892 12.6241 27.1934 6.49121 19.5771 6.49121ZM19.5771 32.2261C12.857 32.2261 7.39015 26.8147 7.39015 20.1627C7.39015 13.5106 12.857 8.0996 19.5771 8.0996C26.2971 8.0996 31.7643 13.5106 31.7643 20.1627C31.7643 26.8147 26.2971 32.2261 19.5771 32.2261Z" fill="#F9A82F"/>
<path d="M18.2191 15.5991C18.2191 13.8251 16.7612 12.3823 14.9693 12.3823C13.1774 12.3823 11.7195 13.8251 11.7195 15.5991C11.7195 17.3731 13.1774 18.8159 14.9693 18.8159C16.7612 18.8159 18.2191 17.3731 18.2191 15.5991ZM13.3444 15.5991C13.3444 14.7123 14.073 13.9907 14.9693 13.9907C15.8656 13.9907 16.5942 14.7123 16.5942 15.5991C16.5942 16.4859 15.8656 17.2075 14.9693 17.2075C14.073 17.2075 13.3444 16.4859 13.3444 15.5991Z" fill="#F9A82F"/>
<path d="M24.1845 21.5095C22.3926 21.5095 20.9347 22.9523 20.9347 24.7266C20.9347 26.5006 22.3926 27.9434 24.1845 27.9434C25.9763 27.9434 27.4346 26.5006 27.4346 24.7266C27.4346 22.9523 25.9763 21.5095 24.1845 21.5095ZM24.1845 26.335C23.2882 26.335 22.5596 25.6131 22.5596 24.7266C22.5596 23.8398 23.2882 23.1179 24.1845 23.1179C25.0807 23.1179 25.8094 23.8398 25.8094 24.7266C25.8094 25.6131 25.0807 26.335 24.1845 26.335Z" fill="#F9A82F"/>
<path d="M24.9238 12.7489C24.5583 12.4898 24.0515 12.5736 23.7905 12.9358L14.0411 26.455C13.7804 26.8165 13.8651 27.3192 14.2303 27.5765C14.3733 27.6779 14.5382 27.7267 14.7013 27.7267C14.9551 27.7267 15.205 27.6095 15.3636 27.3896L25.1134 13.8704C25.3737 13.5093 25.289 13.0066 24.9238 12.7489Z" fill="#F9A82F"/>
</g>
<defs>
<clipPath id="clip0_26_494">
<rect width="39" height="38.6037" fill="white" transform="translate(0 0.860352)"/>
</clipPath>
</defs>
</svg>
