<svg width="31" height="40" viewBox="0 0 31 40" fill="none" xmlns="http://www.w3.org/2000/svg">
<path d="M22.2331 39.464C22.2312 39.464 22.2293 39.464 22.2276 39.464H0.633621C0.283651 39.464 0 39.1832 0 38.8368V1.48753C0 1.14112 0.283651 0.860352 0.633621 0.860352H29.8615C30.2115 0.860352 30.4951 1.14112 30.4951 1.48753V31.08C30.4953 31.1058 30.4939 31.1313 30.4909 31.1566C30.4909 31.1566 30.4909 31.1568 30.4909 31.157C30.4909 31.1574 30.4909 31.1578 30.4907 31.1582C30.4907 31.1584 30.4907 31.1587 30.4907 31.1589C30.4907 31.1593 30.4907 31.1597 30.4905 31.1603C30.4905 31.1607 30.4905 31.1612 30.4905 31.1616C30.4873 31.1873 30.4824 31.2126 30.4763 31.2375C30.4763 31.2377 30.4761 31.2379 30.4761 31.2383C30.4761 31.2385 30.4759 31.2387 30.4759 31.2389C30.4759 31.2394 30.4757 31.2398 30.4757 31.2402V31.2404C30.4495 31.3414 30.3978 31.4363 30.3226 31.5151C30.3221 31.5155 30.3217 31.5159 30.3213 31.5164C30.3209 31.5168 30.3205 31.5172 30.32 31.5176C30.3196 31.518 30.3194 31.5182 30.319 31.5187C30.319 31.5189 30.3188 31.5189 30.3186 31.5191C30.3183 31.5193 30.3181 31.5197 30.3177 31.5199C30.3177 31.5199 30.3175 31.5201 30.3173 31.5203C30.3169 31.5208 30.3164 31.5212 30.316 31.5216L22.6879 39.274C22.687 39.2748 22.686 39.2758 22.6851 39.2769C22.6847 39.2773 22.6843 39.2777 22.6836 39.2784C22.6832 39.2788 22.6828 39.2792 22.6824 39.2796C22.6824 39.2796 22.6824 39.2796 22.6822 39.2798C22.6819 39.28 22.6815 39.2804 22.6811 39.2809C22.6811 39.2809 22.6809 39.2811 22.6807 39.2811C22.6805 39.2815 22.68 39.2817 22.6798 39.2821C22.6796 39.2823 22.6794 39.2825 22.6792 39.2825C22.679 39.2827 22.6788 39.283 22.6786 39.2832C22.6784 39.2834 22.6781 39.2836 22.6777 39.284C22.6777 39.284 22.6777 39.2842 22.6775 39.2842C22.5947 39.3645 22.4931 39.4191 22.385 39.4452C22.3841 39.4456 22.3837 39.4454 22.3831 39.4456C22.3829 39.4458 22.3822 39.4458 22.3814 39.446C22.3808 39.446 22.3803 39.4462 22.3797 39.4464C22.3793 39.4467 22.3784 39.4464 22.378 39.4469C22.3774 39.4469 22.3763 39.4473 22.3763 39.4473C22.3757 39.4473 22.3744 39.4475 22.3744 39.4475C22.3687 39.4487 22.363 39.45 22.3571 39.451C22.3565 39.451 22.3558 39.4513 22.3552 39.4515C22.3554 39.4521 22.3541 39.4517 22.3533 39.4517C22.3529 39.4515 22.3522 39.4517 22.3516 39.4519C22.3503 39.4521 22.3503 39.4521 22.3497 39.4523C22.3493 39.4523 22.3487 39.4525 22.348 39.4525C22.3476 39.4525 22.347 39.4527 22.3461 39.4527C22.3455 39.4529 22.3451 39.4531 22.3444 39.4529C22.3068 39.4609 22.2701 39.464 22.2331 39.464ZM1.26724 38.2096H21.5997V31.0844C21.5997 30.738 21.8834 30.4573 22.2333 30.4573H29.2279V2.11471H1.26724V38.2096ZM22.867 31.7116V37.294L28.3598 31.7116H22.867ZM23.8533 28.287H4.34326C3.99329 28.287 3.70964 28.0062 3.70964 27.6598C3.70964 27.3134 3.99329 27.0326 4.34326 27.0326H23.8535C24.2035 27.0326 24.4871 27.3134 24.4871 27.6598C24.4871 28.0062 24.2033 28.287 23.8533 28.287ZM26.0473 25.4559H4.34326C3.99329 25.4559 3.70964 25.1751 3.70964 24.8287C3.70964 24.4823 3.99329 24.2015 4.34326 24.2015H26.0473C26.3973 24.2015 26.6809 24.4823 26.6809 24.8287C26.6809 25.1751 26.3973 25.4559 26.0473 25.4559ZM8.62422 21.5139C8.59549 21.5139 8.56677 21.512 8.53783 21.508L3.70077 20.8493C3.52652 20.8254 3.37002 20.7311 3.26885 20.5886C3.16768 20.446 3.13093 20.2685 3.16726 20.0981L4.67401 13.0457C3.60404 11.9926 2.9909 10.4983 3.12185 8.89664C3.35798 6.01056 5.92077 3.85201 8.83775 4.08636C11.7535 4.32009 13.9335 6.85809 13.6974 9.74417C13.5897 11.0608 12.9973 12.2261 12.1081 13.0818L13.5599 18.6945C13.6043 18.8657 13.5734 19.0476 13.4752 19.1952C13.377 19.3428 13.2203 19.4425 13.0439 19.4697L9.27748 20.0513L9.25784 20.9009C9.25361 21.0796 9.17272 21.2481 9.03522 21.364C8.9199 21.4614 8.77396 21.5139 8.62422 21.5139ZM4.54792 19.6982L8.00707 20.1694L8.13654 14.5645C8.085 14.5618 8.03347 14.5584 7.98172 14.5542C7.18463 14.4903 6.44245 14.2542 5.78982 13.8859L4.54792 19.6982ZM9.31233 18.5373L9.3664 18.7681L12.1592 18.3368L11.0104 13.8953C10.5171 14.171 9.97636 14.3705 9.4061 14.4788L9.31233 18.5373ZM8.40287 5.32317C7.44652 5.32317 6.53073 5.65536 5.79404 6.27523C4.97224 6.9668 4.47189 7.93371 4.38487 8.99782C4.20513 11.1944 5.86458 13.1264 8.08395 13.3043C10.3027 13.483 12.2547 11.8396 12.4344 9.64298C12.6141 7.44638 10.9549 5.51446 8.73552 5.33655C8.62422 5.32756 8.51333 5.32317 8.40287 5.32317ZM26.0473 14.0744H17.0942C16.7443 14.0744 16.4606 13.7937 16.4606 13.4473C16.4606 13.1008 16.7443 12.8201 17.0942 12.8201H26.0473C26.3973 12.8201 26.6809 13.1008 26.6809 13.4473C26.6809 13.7937 26.3973 14.0744 26.0473 14.0744ZM24.7687 10.7362H17.0942C16.7443 10.7362 16.4606 10.4554 16.4606 10.109C16.4606 9.76257 16.7443 9.4818 17.0942 9.4818H24.7685C25.1184 9.4818 25.4021 9.76257 25.4021 10.109C25.4021 10.4554 25.1184 10.7362 24.7687 10.7362ZM26.0473 7.19509H17.0942C16.7443 7.19509 16.4606 6.91433 16.4606 6.56791C16.4606 6.2215 16.7443 5.94073 17.0942 5.94073H26.0473C26.3973 5.94073 26.6809 6.2215 26.6809 6.56791C26.6809 6.91433 26.3973 7.19509 26.0473 7.19509Z" fill="#F9A82F"/>
</svg>
