<svg width="33" height="41" viewBox="0 0 33 41" fill="none" xmlns="http://www.w3.org/2000/svg">
<path d="M24.5461 8.51137C22.4436 6.39291 19.6392 5.20518 16.6497 5.16648C13.6172 5.12715 10.7503 6.27896 8.57528 8.40919C6.40151 10.5382 5.19936 13.3713 5.19034 16.3867C5.1807 19.6505 6.59285 22.7542 9.06466 24.902C10.8542 26.457 11.8806 28.6683 11.8806 30.9682V36.6464C11.8806 38.8172 13.6552 40.5833 15.8364 40.5833H17.1639C19.3448 40.5833 21.1194 38.8172 21.1194 36.6464V31.041C21.1194 28.6754 22.1262 26.4548 23.8818 24.9482C26.3779 22.8065 27.8097 19.6981 27.8097 16.4211C27.8097 13.4406 26.6508 10.6314 24.5461 8.51137ZM16.49 22.1269H15.9618C15.6731 22.1269 15.4382 21.8931 15.4382 21.6054C15.4382 21.3181 15.6731 21.0843 15.9618 21.0843C16.253 21.0843 16.49 21.3203 16.49 21.6101V22.1269ZM16.5 26.8378C16.9393 26.8378 17.2965 27.1933 17.2965 27.6305V30.3254H15.7035V27.6305C15.7035 27.1933 16.0607 26.8378 16.5 26.8378ZM19.5265 31.9107V33.0765H13.4735V31.9107H19.5265ZM13.4735 34.6617H19.5265V35.8275H13.4735V34.6617ZM17.1636 38.9981H15.8364C14.8029 38.9981 13.923 38.3342 13.6029 37.4128H19.3971C19.077 38.3342 18.1971 38.9981 17.1636 38.9981ZM22.8418 23.7477C20.9138 25.4021 19.7381 27.7685 19.5524 30.3254H18.8894V27.6305C18.8894 26.9226 18.5767 26.2867 18.0823 25.8507C18.0823 25.8473 18.083 25.8439 18.083 25.8402V23.235C18.7316 22.7718 19.1548 22.0151 19.1548 21.1617V19.9341C19.1548 18.2454 17.7743 16.8713 16.0772 16.8713H14.6417C14.2018 16.8713 13.8453 17.2261 13.8453 17.6639C13.8453 18.1017 14.2018 18.4565 14.6417 18.4565H16.0772C16.8961 18.4565 17.5618 19.1195 17.5618 19.9341V20.2257C17.1726 19.7808 16.5999 19.4991 15.9618 19.4991C14.7948 19.4991 13.8453 20.444 13.8453 21.6058C13.8453 22.7672 14.7948 23.7121 15.9618 23.7121H16.49V25.2528C15.1771 25.2581 14.1106 26.3226 14.1106 27.6305V30.3254H13.4514C13.2769 27.8023 12.0819 25.4191 10.1125 23.7078C7.9882 21.8624 6.77485 19.1956 6.78325 16.3917C6.79103 13.8026 7.82424 11.3689 9.6928 9.53901C11.5623 7.70789 14.0235 6.7177 16.6288 6.75176C21.9156 6.81988 26.2168 11.1577 26.2168 16.4211C26.2168 19.2368 24.9866 21.907 22.8418 23.7477Z" fill="#F9A82F"/>
<path d="M16.6609 9.02189H16.6484C16.2094 9.01755 15.852 9.36774 15.8467 9.80524C15.8417 10.2431 16.1979 10.6022 16.6378 10.6072H16.6596C17.0949 10.6072 17.4467 10.2585 17.4517 9.82382C17.457 9.38601 17.1008 9.02715 16.6609 9.02189Z" fill="#F9A82F"/>
<path d="M20.1643 9.95204C19.7798 9.73902 19.2947 9.87649 19.0807 10.2592C18.867 10.6416 19.0048 11.1243 19.3893 11.3373C21.2426 12.3643 22.3938 14.3122 22.3938 16.4211C22.3938 16.8589 22.7503 17.2137 23.1902 17.2137C23.6301 17.2137 23.9867 16.8589 23.9867 16.4211C23.9867 13.7375 22.5219 11.259 20.1643 9.95204Z" fill="#F9A82F"/>
<path d="M16.5 3.72542C16.9399 3.72542 17.2965 3.37059 17.2965 2.93278V0.792642C17.2965 0.354831 16.9399 0 16.5 0C16.0601 0 15.7036 0.354831 15.7036 0.792642V2.93278C15.7036 3.37059 16.0601 3.72542 16.5 3.72542Z" fill="#F9A82F"/>
<path d="M32.2035 15.6284H30.0531C29.6132 15.6284 29.2567 15.9832 29.2567 16.421C29.2567 16.8588 29.6132 17.2137 30.0531 17.2137H32.2035C32.6435 17.2137 33 16.8588 33 16.421C33 15.9832 32.6435 15.6284 32.2035 15.6284Z" fill="#F9A82F"/>
<path d="M2.94688 15.6284H0.796455C0.356538 15.6284 0 15.9832 0 16.421C0 16.8588 0.356538 17.2137 0.796455 17.2137H2.94688C3.3868 17.2137 3.74334 16.8588 3.74334 16.421C3.74334 15.9832 3.3868 15.6284 2.94688 15.6284Z" fill="#F9A82F"/>
<path d="M26.6467 25.3983C26.3356 25.0886 25.8313 25.0886 25.5202 25.3983C25.2094 25.7076 25.2094 26.2095 25.5202 26.5191L27.0409 28.0326C27.1965 28.1871 27.4002 28.2648 27.604 28.2648C27.8078 28.2648 28.0116 28.1871 28.1671 28.0326C28.4783 27.7229 28.4783 27.221 28.1671 26.9114L26.6467 25.3983Z" fill="#F9A82F"/>
<path d="M6.3533 7.44368C6.50886 7.59849 6.71264 7.67589 6.91642 7.67589C7.1202 7.67589 7.32429 7.59849 7.47954 7.44368C7.79065 7.13436 7.79065 6.63246 7.47954 6.32283L5.95912 4.80938C5.648 4.50006 5.14369 4.50006 4.83257 4.80938C4.52146 5.119 4.52177 5.62091 4.83257 5.93053L6.3533 7.44368Z" fill="#F9A82F"/>
<path d="M27.0409 4.80976L25.5205 6.32291C25.2093 6.63253 25.2093 7.13444 25.5205 7.44406C25.676 7.59887 25.8798 7.67628 26.0836 7.67628C26.2874 7.67628 26.4911 7.59887 26.6467 7.44406L28.1671 5.93061C28.4782 5.62098 28.4782 5.11908 28.1671 4.80945C27.8563 4.49983 27.352 4.50014 27.0409 4.80976Z" fill="#F9A82F"/>
<path d="M6.35329 25.3983L4.83287 26.9114C4.52175 27.221 4.52175 27.7229 4.83287 28.0326C4.98842 28.1871 5.1922 28.2648 5.39598 28.2648C5.59976 28.2648 5.80354 28.1871 5.9591 28.0326L7.47952 26.5191C7.79064 26.2095 7.79064 25.7076 7.47952 25.3983C7.16872 25.0886 6.6644 25.0886 6.35329 25.3983Z" fill="#F9A82F"/>
</svg>
