<svg width="41" height="41" viewBox="0 0 41 41" fill="none" xmlns="http://www.w3.org/2000/svg">
<g clip-path="url(#clip0_26_410)">
<path d="M38.3286 39.2732V7.46957L20.5 0L2.67146 7.46957V39.2732H0.0322876V40.5833H3.98701V8.33237L20.5 1.42201L37.013 8.33237V40.5833H40.9677V39.2732H38.3286Z" fill="#F9A82F"/>
<path d="M5.97247 13.7808V40.5833H7.2961V15.0909H33.704V40.5833H35.0276V13.7808H5.97247Z" fill="#F9A82F"/>
<path d="M9.27344 31.4281V40.5833H19.8382V31.4281H9.27344ZM13.89 32.7383H15.2136V34.0484H13.89V32.7383ZM18.5227 39.2731H10.5971V32.7383H12.5744V35.3506H16.5372V32.7383H18.5227V39.2731Z" fill="#F9A82F"/>
<path d="M21.1618 31.4281V40.5833H31.7266V31.4281H21.1618ZM25.7783 32.7383H27.102V34.0484H25.7783V32.7383ZM30.4029 39.2731H22.4774V32.7383H24.4547V35.3506H28.4175V32.7383H30.4029V39.2731Z" fill="#F9A82F"/>
<path d="M15.2136 30.1259H25.7783V20.9707H15.2136V30.1259ZM19.8382 22.2809H21.1618V23.591H19.8382V22.2809ZM16.5372 22.2809H18.5145V24.8932H22.4773V22.2809H24.4547V28.8158H16.5372V22.2809Z" fill="#F9A82F"/>
<path d="M21.1618 7.901H19.8382V9.21117H21.1618V7.901Z" fill="#F9A82F"/>
<path d="M23.801 7.901H22.4774V9.21117H23.801V7.901Z" fill="#F9A82F"/>
<path d="M18.5227 7.901H17.199V9.21117H18.5227V7.901Z" fill="#F9A82F"/>
</g>
<defs>
<clipPath id="clip0_26_410">
<rect width="41" height="40.5833" fill="white"/>
</clipPath>
</defs>
</svg>
