<svg width="38" height="38" viewBox="0 0 38 38" fill="none" xmlns="http://www.w3.org/2000/svg">
<g clip-path="url(#clip0_88_178)">
<path d="M11.5805 21.9952C11.9304 21.9952 12.2593 22.1314 12.5067 22.3788C12.6466 22.5187 12.8299 22.5888 13.0134 22.5887C13.1967 22.5887 13.3802 22.5187 13.5201 22.3788C13.8 22.099 13.8 21.6453 13.5201 21.3654C13.002 20.8473 12.3132 20.562 11.5806 20.562C10.848 20.562 10.1592 20.8473 9.64109 21.3654C9.36117 21.6452 9.36117 22.0989 9.64109 22.3788C9.921 22.6587 10.3747 22.6586 10.6544 22.3788C10.9017 22.1314 11.2306 21.9952 11.5805 21.9952Z" fill="#F9A82F"/>
<path d="M24.48 21.3653C24.2 21.6451 24.2 22.0988 24.48 22.3787C24.7598 22.6586 25.2135 22.6586 25.4933 22.3787C26.0039 21.868 26.835 21.8681 27.3456 22.3787C27.4855 22.5186 27.6689 22.5886 27.8523 22.5886C28.0358 22.5886 28.2191 22.5186 28.3591 22.3787C28.639 22.0989 28.639 21.6452 28.3591 21.3653C27.2897 20.2959 25.5495 20.2958 24.48 21.3653Z" fill="#F9A82F"/>
<path d="M26.4156 28.4345C22.3267 32.5235 15.6735 32.5235 11.5845 28.4345C11.3046 28.1547 10.851 28.1547 10.5711 28.4345C10.2912 28.7143 10.2912 29.1681 10.5711 29.4479C12.895 31.7718 15.9475 32.9337 19.0001 32.9337C22.0527 32.9337 25.1052 31.7718 27.4291 29.4479C27.709 29.1681 27.709 28.7144 27.4291 28.4345C27.1492 28.1547 26.6955 28.1547 26.4156 28.4345Z" fill="#F9A82F"/>
<path d="M35.9078 22.7673C35.9078 20.8208 34.5006 19.1978 32.6504 18.8593V6.87155C32.6504 5.31639 31.8768 3.87464 30.5809 3.01484C29.3637 2.20735 27.8528 2.02408 26.4865 2.50553L21.9877 0.978504C18.5307 -0.194981 14.8918 -0.315366 11.4645 0.630248C6.9777 1.86822 4.40536 4.48606 4.00829 8.20725C3.6569 8.67069 3.3777 9.1912 3.18799 9.75282L2.83902 10.7857C2.65172 11.3402 2.85818 11.923 3.35298 12.2358C3.84769 12.5485 4.46278 12.4853 4.88341 12.0782C5.02708 11.9391 5.18419 11.8219 5.34954 11.7239V18.8593C3.49934 19.1978 2.09216 20.8207 2.09216 22.7673C2.09216 24.7917 3.61408 26.4663 5.57365 26.7097C6.06576 29.427 7.35891 31.9335 9.33622 33.9393C11.9178 36.558 15.3496 38.0001 19 38.0001C19.0004 38.0001 19.0009 38.0001 19.0013 38.0001C22.647 37.9998 26.0744 36.5799 28.6523 34.0021C30.6659 31.9884 31.973 29.4564 32.4489 26.7069C34.3975 26.4533 35.9078 24.7838 35.9078 22.7673ZM29.7886 4.2091C30.6966 4.81148 31.2173 5.7819 31.2173 6.87155V16.2488C28.9931 15.9031 27.2853 13.9752 27.2853 11.6556L27.226 3.77683C28.101 3.54618 29.0135 3.69487 29.7886 4.2091ZM4.40653 10.6236L4.54581 10.2115C4.91064 9.13172 5.72082 8.25508 6.76855 7.8065C7.81618 7.35792 9.00973 7.37655 10.0429 7.85783C12.2129 8.86847 14.8362 8.32208 16.4222 6.5292L16.5997 6.32847C16.862 6.03208 16.8342 5.5792 16.5378 5.31702C16.2413 5.05484 15.7885 5.08252 15.5263 5.37892L15.3488 5.57965C14.18 6.90084 12.247 7.30337 10.648 6.55867C9.24593 5.9056 7.6262 5.88025 6.20442 6.48907C6.07499 6.54452 5.94914 6.60641 5.82526 6.67117C6.65819 4.45059 8.6741 2.88684 11.8459 2.01172C14.9953 1.14269 18.343 1.25474 21.5272 2.33552L25.7929 3.78346L25.8488 7.4861C23.9494 10.0686 21.1793 11.8167 18.0226 12.4179C14.7902 13.0333 11.4927 12.382 8.73725 10.584C7.39089 9.70552 5.69341 9.74305 4.40653 10.6236ZM3.52532 22.7673C3.52532 21.6151 4.29644 20.6402 5.34954 20.33V24.2141C5.34954 24.5496 5.36164 24.8833 5.38519 25.2148C4.314 24.9162 3.52532 23.9324 3.52532 22.7673ZM27.6389 32.9886C25.3317 35.2958 22.2642 36.5665 19.0012 36.5669C19.0007 36.5669 19.0006 36.5669 19 36.5669C15.7366 36.5669 12.6668 35.2762 10.3568 32.9331C8.05202 30.5951 6.7827 27.4986 6.7827 24.214V11.3861C7.18855 11.4163 7.59126 11.5477 7.95385 11.7842C11.0213 13.7859 14.6922 14.511 18.2905 13.8258C21.2113 13.2695 23.8353 11.8316 25.8521 9.71098V11.6555C25.8521 14.7664 28.2004 17.3377 31.2172 17.6936V24.3495C31.2173 27.613 29.9465 30.6811 27.6389 32.9886ZM32.6227 25.2124C32.6405 24.9263 32.6504 24.6387 32.6504 24.3496V20.33C33.7035 20.6402 34.4746 21.6151 34.4746 22.7673C34.4746 23.9295 33.69 24.9113 32.6227 25.2124Z" fill="#F9A82F"/>
</g>
<defs>
<clipPath id="clip0_88_178">
<rect width="38" height="38" fill="white"/>
</clipPath>
</defs>
</svg>
