<svg width="63" height="38" viewBox="0 0 63 38" fill="none" xmlns="http://www.w3.org/2000/svg">
<path d="M12.9998 29C11.346 29 10 30.1217 10 31.4998C10 32.8783 11.346 34 12.9998 34C14.654 34 16 32.8783 16 31.4998C16 30.1217 14.654 29 12.9998 29ZM12.9998 32.4065C12.4002 32.4065 11.9122 31.9998 11.9122 31.4998C11.9122 31.0002 12.4002 30.5935 12.9998 30.5935C13.5998 30.5935 14.0878 31.0002 14.0878 31.4998C14.0878 31.9998 13.5998 32.4065 12.9998 32.4065Z" fill="#F9A82F"/>
<path d="M52 29C50.3456 29 49 30.1217 49 31.4998C49 32.8783 50.3456 34 52 34C53.6539 34 55 32.8783 55 31.4998C55 30.1217 53.6539 29 52 29ZM52 32.4065C51.3999 32.4065 50.9123 31.9998 50.9123 31.4998C50.9123 31.0002 51.4004 30.5935 52 30.5935C52.5996 30.5935 53.0877 31.0002 53.0877 31.4998C53.0877 31.9998 52.5996 32.4065 52 32.4065Z" fill="#F9A82F"/>
<path d="M59.6311 20.1392L47.9897 18.6763L44.8612 9.09122C44.3565 7.54627 42.8655 6.50829 41.151 6.50829H33.4091V2.72927C33.4091 1.22418 32.1104 0 30.5137 0H2.89545C1.2992 0 0 1.22418 0 2.72927V29.6921C0 31.1972 1.2992 32.4214 2.89545 32.4214H5.98219C6.43401 35.567 9.30013 38 12.7589 38C16.2182 38 19.0838 35.567 19.5361 32.4214H45.4365C45.8888 35.567 48.7544 38 52.2137 38C55.6725 38 58.5381 35.567 58.9904 32.4214H59.1178C61.2586 32.4214 63 30.7799 63 28.7624V23.7665C63 21.9402 61.5518 20.3807 59.6311 20.1392ZM46.0325 18.5952H37.4183C37.3832 18.5952 37.3548 18.568 37.3548 18.5349V12.0266C37.3548 11.9936 37.3832 11.9668 37.4183 11.9668H43.8686L46.0325 18.5952ZM12.7589 36.2602C10.0052 36.2602 7.76493 34.1485 7.76397 31.5529C7.76397 31.5524 7.76397 31.552 7.76397 31.5515C7.76397 31.5511 7.76397 31.5506 7.76397 31.5502C7.76493 28.9545 10.0052 26.8428 12.7589 26.8428C13.6375 26.8428 14.5008 27.0603 15.2559 27.4726C15.6971 27.7127 16.2619 27.5709 16.5171 27.155C16.7723 26.739 16.6214 26.2071 16.1802 25.9661C15.1444 25.4016 13.9615 25.103 12.7589 25.103C9.30013 25.103 6.43449 27.536 5.98219 30.6816H2.89545C2.31674 30.6816 1.8457 30.2376 1.8457 29.6921V2.72927C1.8457 2.18378 2.31674 1.73977 2.89545 1.73977H30.5137C31.0924 1.73977 31.5634 2.18378 31.5634 2.72927V9.23801C31.5634 9.71872 31.9768 10.1079 32.4863 10.1079C32.9958 10.1079 33.4091 9.71872 33.4091 9.23801V8.24806H41.151C42.0503 8.24806 42.8323 8.79265 43.0967 9.60319L43.3005 10.2275H37.4183C36.3652 10.2275 35.5086 11.0344 35.5086 12.0271V18.5354C35.5086 19.5276 36.3652 20.335 37.4183 20.335H47.2207L59.3869 21.8641C60.2045 21.9669 60.8592 22.5251 61.0764 23.2441H60.1046C59.5946 23.2441 59.1817 23.6333 59.1817 24.114C59.1817 24.5942 59.5946 24.9839 60.1046 24.9839H61.1543V26.9629H57.014C55.7777 25.8143 54.0825 25.1035 52.2137 25.1035C48.7544 25.1035 45.8888 27.5364 45.4365 30.6821H33.4091V28.7026H43.028C43.5374 28.7026 43.9508 28.3134 43.9508 27.8327C43.9508 27.3525 43.5374 26.9629 43.028 26.9629H33.4091V12.9568C33.4091 12.4761 32.9958 12.0869 32.4863 12.0869C31.9768 12.0869 31.5634 12.4761 31.5634 12.9568V30.6816H19.5375C19.4755 30.2485 19.3679 29.8226 19.2131 29.409C19.0439 28.9559 18.5166 28.7176 18.036 28.8771C17.5553 29.037 17.303 29.5336 17.4722 29.9866C17.6596 30.4882 17.7543 31.0146 17.7543 31.5515C17.7543 34.148 15.5135 36.2602 12.7589 36.2602ZM52.2137 36.2602C49.4591 36.2602 47.2183 34.148 47.2183 31.5515C47.2183 28.955 49.4591 26.8428 52.2137 26.8428C54.9678 26.8428 57.2091 28.955 57.2091 31.5515C57.2091 34.148 54.9678 36.2602 52.2137 36.2602ZM59.1183 30.6816H58.9904C58.8899 29.9803 58.6693 29.3143 58.3487 28.7026H61.1543V28.7624C61.1543 29.8208 60.2411 30.6816 59.1183 30.6816Z" fill="#F9A82F"/>
</svg>
