<svg width="44" height="38" viewBox="0 0 44 38" fill="none" xmlns="http://www.w3.org/2000/svg">
<path d="M22 5C18.1231 5 15 7.9 15 11.5C15 15.1 18.1231 18 22 18C25.8769 18 29 15.1 29 11.5C29 7.9 25.8769 5 22 5ZM22 16C19.3077 16 17.1538 14 17.1538 11.5C17.1538 9 19.3077 7 22 7C24.6923 7 26.8462 9 26.8462 11.5C26.8462 14 24.6923 16 22 16Z" fill="#F9A82F"/>
<path d="M24.3154 9.64997C24.2077 9.54997 24.0462 9.49997 23.9385 9.49997C23.8308 9.49997 23.6692 9.54997 23.5615 9.64997L21.6231 11.3C21.5154 11.4 21.3538 11.4 21.2462 11.3L20.4385 10.65C20.2231 10.45 19.9 10.45 19.6846 10.65L18.9308 11.35C18.8231 11.45 18.7692 11.6 18.7692 11.7C18.7692 11.8 18.8231 11.95 18.9308 12.05L21.0846 13.85C21.1923 13.95 21.3 14 21.4615 14C21.6231 14 21.7308 13.95 21.8385 13.85L25.0692 11.05C25.1769 10.95 25.2308 10.8 25.2308 10.7C25.2308 10.6 25.1769 10.45 25.0692 10.35L24.3154 9.64997Z" fill="#F9A82F"/>
<path d="M41.0552 0H2.6377C1.18329 0 0 1.15295 0 2.57007V28.4145C0 29.8316 1.18329 30.9846 2.6377 30.9846H15.8019V32.8546C15.8019 34.5689 14.3704 35.9637 12.611 35.9637H9.70981C9.15358 35.9637 8.70257 36.403 8.70257 36.9451C8.70257 37.4871 9.15358 37.9265 9.70981 37.9265H33.9829C34.5392 37.9265 34.9902 37.4871 34.9902 36.9451C34.9902 36.403 34.5392 35.9637 33.9829 35.9637H31.0816C29.3222 35.9637 27.8907 34.5689 27.8907 32.8546V30.9847H41.0549C42.5094 30.9847 43.6927 29.8317 43.6927 28.4146V2.57007C43.6929 1.15295 42.5096 0 41.0552 0ZM16.7194 35.9638C17.406 35.1044 17.8165 34.0258 17.8165 32.8548V30.9848H25.8764V32.8548C25.8764 34.0258 26.287 35.1045 26.9736 35.9638H16.7194ZM41.6784 28.4146C41.6784 28.7494 41.3988 29.0219 41.0551 29.0219H2.6377C2.29405 29.0219 2.0144 28.7495 2.0144 28.4146V23.2566H41.6784V28.4146ZM41.6784 21.2937H2.01448V2.57007C2.01448 2.23523 2.29405 1.96274 2.63779 1.96274H41.0551C41.3988 1.96274 41.6785 2.23514 41.6785 2.57007L41.6784 21.2937Z" fill="#F9A82F"/>
<path d="M21.8467 27.1988C22.4471 27.1988 22.9337 26.7246 22.9337 26.1396C22.9337 25.5546 22.4471 25.0804 21.8467 25.0804C21.2464 25.0804 20.7597 25.5546 20.7597 26.1396C20.7597 26.7246 21.2464 27.1988 21.8467 27.1988Z" fill="#F9A82F"/>
</svg>
