<svg width="44" height="38" viewBox="0 0 44 38" fill="none" xmlns="http://www.w3.org/2000/svg">
<path d="M41.0552 0H2.6377C1.18329 0 0 1.15295 0 2.57007V28.4145C0 29.8316 1.18329 30.9846 2.6377 30.9846H15.8019V32.8546C15.8019 34.5689 14.3704 35.9637 12.611 35.9637H9.70981C9.15358 35.9637 8.70257 36.403 8.70257 36.9451C8.70257 37.4871 9.15358 37.9265 9.70981 37.9265H33.9829C34.5392 37.9265 34.9902 37.4871 34.9902 36.9451C34.9902 36.403 34.5392 35.9637 33.9829 35.9637H31.0816C29.3222 35.9637 27.8907 34.5689 27.8907 32.8546V30.9847H41.0549C42.5094 30.9847 43.6927 29.8317 43.6927 28.4146V2.57007C43.6929 1.15295 42.5096 0 41.0552 0ZM16.7194 35.9638C17.406 35.1044 17.8165 34.0258 17.8165 32.8548V30.9848H25.8764V32.8548C25.8764 34.0258 26.287 35.1045 26.9736 35.9638H16.7194ZM41.6784 28.4146C41.6784 28.7494 41.3989 29.0219 41.0551 29.0219H2.6377C2.29405 29.0219 2.0144 28.7495 2.0144 28.4146V23.2566H41.6784V28.4146ZM41.6784 21.2937H2.01448V2.57007C2.01448 2.23523 2.29405 1.96274 2.63779 1.96274H41.0551C41.3988 1.96274 41.6785 2.23514 41.6785 2.57007L41.6784 21.2937Z" fill="#F9A82F"/>
<path d="M21.8467 27.1988C22.4471 27.1988 22.9337 26.7246 22.9337 26.1396C22.9337 25.5546 22.4471 25.0804 21.8467 25.0804C21.2464 25.0804 20.7597 25.5546 20.7597 26.1396C20.7597 26.7246 21.2464 27.1988 21.8467 27.1988Z" fill="#F9A82F"/>
<path d="M23.5735 6.7614C23.1801 6.37816 22.5425 6.37816 22.149 6.7614L15.0306 13.6972C14.6373 14.0805 14.6373 14.7019 15.0306 15.0852C15.2274 15.2769 15.485 15.3727 15.7429 15.3727C16.0008 15.3727 16.2585 15.2769 16.4552 15.0852L23.5735 8.14941C23.9668 7.76618 23.9668 7.14472 23.5735 6.7614Z" fill="#F9A82F"/>
<path d="M27.7926 10.7808C27.3994 10.3976 26.7618 10.3976 26.3682 10.7807L23.5324 13.5436C23.1391 13.9269 23.1391 14.5484 23.5324 14.9316C23.7291 15.1233 23.9868 15.2191 24.2446 15.2191C24.5023 15.2191 24.7601 15.1233 24.9568 14.9316L27.7926 12.1687C28.1859 11.7855 28.1859 11.164 27.7926 10.7808Z" fill="#F9A82F"/>
</svg>
