<svg width="38" height="38" viewBox="0 0 38 38" fill="none" xmlns="http://www.w3.org/2000/svg">
<g clip-path="url(#clip0_88_251)">
<path d="M30.032 23.5396C29.254 22.7296 28.3157 22.2965 27.3212 22.2965C26.3347 22.2965 25.3883 22.7216 24.5783 23.5316L22.0439 26.058C21.8354 25.9457 21.6268 25.8414 21.4263 25.7372C21.1376 25.5928 20.8649 25.4565 20.6323 25.3121C18.2584 23.8043 16.101 21.8394 14.0318 19.297C13.0292 18.0298 12.3555 16.9631 11.8663 15.8804C12.524 15.2789 13.1335 14.6533 13.727 14.0518C13.9516 13.8272 14.1761 13.5946 14.4007 13.3701C16.0849 11.6858 16.0849 9.50436 14.4007 7.82013L12.2112 5.63063C11.9626 5.382 11.7059 5.12536 11.4653 4.86871C10.9841 4.37146 10.4788 3.85817 9.95751 3.37696C9.17956 2.60703 8.24922 2.198 7.27076 2.198C6.2923 2.198 5.34592 2.60703 4.54391 3.37696C4.53588 3.38498 4.53589 3.38498 4.52786 3.393L1.80101 6.14392C0.77443 7.1705 0.188958 8.42164 0.0606354 9.87329C-0.131848 12.2152 0.557885 14.3967 1.08722 15.8243C2.38648 19.3291 4.32736 22.5772 7.22264 26.058C10.7355 30.2525 14.9621 33.5648 19.7902 35.8987C21.6349 36.7729 24.0971 37.8075 26.848 37.984C27.0164 37.992 27.1928 38 27.3532 38C29.2059 38 30.7618 37.3343 31.9809 36.011C31.9889 35.995 32.0049 35.9869 32.013 35.9709C32.43 35.4656 32.9112 35.0085 33.4165 34.5192C33.7613 34.1904 34.1142 33.8456 34.4591 33.4846C35.2531 32.6586 35.6701 31.6961 35.6701 30.7097C35.6701 29.7152 35.2451 28.7608 34.435 27.9588L30.032 23.5396ZM32.9032 31.9849C32.8952 31.9849 32.8952 31.9929 32.9032 31.9849C32.5904 32.3217 32.2696 32.6265 31.9247 32.9633C31.4034 33.4606 30.8741 33.9819 30.3768 34.5674C29.5668 35.4335 28.6124 35.8426 27.3613 35.8426C27.241 35.8426 27.1126 35.8426 26.9923 35.8346C24.6103 35.6822 22.3968 34.7518 20.7366 33.9578C16.1972 31.7603 12.2112 28.6405 8.89885 24.6865C6.16398 21.3902 4.33538 18.3426 3.12434 15.0704C2.37846 13.0733 2.10578 11.5174 2.22608 10.0497C2.30628 9.11138 2.66719 8.33342 3.33286 7.66775L6.06774 4.93287C6.46072 4.56395 6.87777 4.36344 7.2868 4.36344C7.79207 4.36344 8.2011 4.66821 8.45774 4.92485C8.46576 4.93287 8.47378 4.94089 8.4818 4.94891C8.97103 5.40606 9.4362 5.87925 9.92543 6.38452C10.1741 6.64117 10.4307 6.89781 10.6873 7.16248L12.8769 9.35198C13.727 10.2021 13.727 10.9881 12.8769 11.8382C12.6443 12.0708 12.4197 12.3034 12.1871 12.528C11.5134 13.2177 10.8718 13.8593 10.1741 14.4849C10.158 14.5009 10.142 14.5089 10.134 14.525C9.44422 15.2147 9.57255 15.8884 9.71691 16.3456C9.72493 16.3696 9.73295 16.3937 9.74097 16.4177C10.3104 17.7972 11.1124 19.0965 12.3315 20.6444L12.3395 20.6524C14.5531 23.3792 16.8869 25.5046 19.4614 27.1327C19.7902 27.3412 20.1271 27.5096 20.4479 27.67C20.7366 27.8144 21.0093 27.9507 21.2419 28.0951C21.274 28.1111 21.306 28.1352 21.3381 28.1512C21.6108 28.2876 21.8675 28.3517 22.1321 28.3517C22.7978 28.3517 23.2148 27.9347 23.3512 27.7984L26.0941 25.0555C26.3668 24.7828 26.7999 24.4539 27.3051 24.4539C27.8024 24.4539 28.2114 24.7667 28.46 25.0394C28.468 25.0474 28.468 25.0474 28.4761 25.0555L32.8952 29.4746C33.7212 30.2926 33.7212 31.1347 32.9032 31.9849Z" fill="#F9A82F"/>
<path d="M20.5361 9.03922C22.6374 9.3921 24.5462 10.3866 26.07 11.9104C27.5938 13.4343 28.5803 15.3431 28.9412 17.4443C29.0295 17.9737 29.4866 18.3426 30.0079 18.3426C30.0721 18.3426 30.1282 18.3346 30.1924 18.3266C30.7859 18.2303 31.1789 17.6689 31.0826 17.0754C30.6495 14.533 29.4465 12.2152 27.6099 10.3786C25.7733 8.54197 23.4554 7.33894 20.9131 6.90585C20.3196 6.80961 19.7662 7.2026 19.6619 7.78807C19.5576 8.37354 19.9426 8.94297 20.5361 9.03922Z" fill="#F9A82F"/>
<path d="M37.9559 16.7626C37.2421 12.5761 35.2691 8.7665 32.2375 5.73488C29.2059 2.70326 25.3963 0.730301 21.2098 0.0165067C20.6243 -0.0877554 20.0709 0.313253 19.9667 0.898724C19.8704 1.49222 20.2634 2.04561 20.8569 2.14987C24.5943 2.78346 28.0029 4.55592 30.7137 7.25871C33.4245 9.96953 35.1889 13.3781 35.8225 17.1155C35.9107 17.6448 36.3679 18.0137 36.8892 18.0137C36.9534 18.0137 37.0095 18.0057 37.0737 17.9977C37.6591 17.9095 38.0602 17.3481 37.9559 16.7626Z" fill="#F9A82F"/>
</g>
<defs>
<clipPath id="clip0_88_251">
<rect width="38" height="38" fill="white"/>
</clipPath>
</defs>
</svg>
