<svg width="39" height="38" viewBox="0 0 39 38" fill="none" xmlns="http://www.w3.org/2000/svg">
<g clip-path="url(#clip0_88_96)">
<path d="M29.4325 10.324C29.0978 9.96883 28.622 9.76502 28.1271 9.76502H27.2172L27.3255 8.14765L27.4598 6.13959C27.5636 4.58945 27.0203 3.11146 25.9303 1.97784C24.8403 0.844225 23.3619 0.219971 21.7677 0.219971H17.232C15.6377 0.219971 14.1595 0.844225 13.0694 1.97784C11.9794 3.11146 11.4362 4.58938 11.5399 6.13959L11.7415 9.15146L11.7826 9.76502H10.7949C10.3001 9.76502 9.82429 9.96875 9.48959 10.324C9.15489 10.6792 8.98716 11.1585 9.02944 11.639L9.32537 14.9986C9.38646 15.6931 9.85278 16.2542 10.4881 16.4752V19.6056C10.4881 20.0237 10.8359 20.3626 11.265 20.3626C11.6941 20.3626 12.0419 20.0237 12.0419 19.6056V16.5777H12.2506C12.5312 18.8524 13.9032 20.8431 15.9806 21.9564C17.0826 22.547 18.2911 22.8422 19.5 22.8422C20.7087 22.8422 21.9178 22.5469 23.0195 21.9564C24.0748 21.3909 24.9475 20.5984 25.5884 19.6579C26.1229 19.6044 26.619 19.4602 27.0741 19.2232C29.3192 18.0533 29.5871 15.1194 29.5974 14.9951C29.5974 14.995 29.5974 14.9948 29.5974 14.9948L29.8926 11.6389C29.9349 11.1585 29.7672 10.6792 29.4325 10.324ZM11.0907 15.0637C10.9766 15.0637 10.8832 14.9802 10.8734 14.8693L10.5778 11.5096C10.571 11.4326 10.6048 11.3791 10.6345 11.3477C10.664 11.3163 10.7159 11.2789 10.7951 11.2789H11.8841L12.1374 15.0637H11.0907V15.0637ZM13.0907 6.04102C13.0152 4.91312 13.4104 3.83776 14.2035 3.0129C14.9965 2.1881 16.0722 1.73388 17.2322 1.73388H21.768C21.8686 1.73388 21.9683 1.73856 22.0675 1.74531L20.864 4.8723C20.6695 5.18728 18.9042 7.775 13.2413 8.29074L13.0907 6.04102ZM25.2372 16.0859C25.1884 16.8149 24.9978 17.5118 24.6857 18.147C24.0192 18.0755 23.2588 17.8354 22.4091 17.4283C22.4372 17.3003 22.4523 17.1678 22.4523 17.0318C22.4523 15.9883 21.581 15.1394 20.5101 15.1394C19.4391 15.1394 18.5678 15.9883 18.5678 17.0318C18.5678 18.0753 19.4391 18.9242 20.5101 18.9242C20.8647 18.9242 21.1972 18.8306 21.4837 18.6682C22.2811 19.0684 23.0322 19.351 23.7343 19.514C23.3184 19.9536 22.8269 20.3318 22.2708 20.6299C20.5359 21.5597 18.4643 21.5597 16.7294 20.6299C15.0004 19.7033 13.8914 18.0046 13.763 16.086L13.3424 9.80117C17.7181 9.41011 20.1047 7.85166 21.2806 6.73289C21.5951 7.08424 22.0443 7.40784 22.6247 7.69989C23.2518 8.01554 24.2955 8.34745 25.7323 8.68841L25.2372 16.0859ZM20.8985 17.0319C20.8985 17.2406 20.7242 17.4104 20.51 17.4104C20.2958 17.4104 20.1215 17.2406 20.1215 17.0319C20.1215 16.8232 20.2958 16.6533 20.51 16.6533C20.7242 16.6533 20.8985 16.8232 20.8985 17.0319ZM25.9094 6.04095L25.8349 7.15378C24.3952 6.80117 23.6857 6.53005 23.3378 6.35489C22.4906 5.92843 22.2994 5.57567 22.2943 5.46739C22.2949 5.4659 22.2953 5.46434 22.2958 5.46286C22.2962 5.46182 22.2968 5.46078 22.2971 5.45974L23.5767 2.13519C24.0281 2.34842 24.4409 2.64314 24.7965 3.0129C25.5897 3.83769 25.9849 4.91312 25.9094 6.04095ZM26.4843 17.8064C26.6084 17.409 26.6977 16.9982 26.7495 16.5777H27.5466C27.3125 17.0451 26.9733 17.5051 26.4843 17.8064ZM28.0489 14.8693C28.0391 14.9802 27.9457 15.0637 27.8316 15.0637H26.8626L27.116 11.2789H28.1272C28.2064 11.2789 28.2583 11.3163 28.2878 11.3477C28.3175 11.3791 28.3512 11.4326 28.3445 11.5095L28.0489 14.8693Z" fill="#F9A82F"/>
<path d="M38.9876 36.8882L38.2364 32.848C37.8154 30.5839 36.7107 28.5285 35.0415 26.9042C33.3918 25.2989 31.3129 24.2289 29.0293 23.8099C28.3254 23.6808 27.6055 23.6153 26.8897 23.6153H24.6274C24.4214 23.6153 24.2238 23.6951 24.0781 23.837L19.5 28.2977L14.9219 23.8369C14.7763 23.695 14.5786 23.6152 14.3726 23.6152H12.1103C11.3947 23.6152 10.6749 23.6807 9.97081 23.8098C9.97074 23.8098 9.97074 23.8098 9.97066 23.8098C7.6871 24.2288 5.60807 25.2988 3.95841 26.9042C2.28933 28.5284 1.18454 30.5838 0.763534 32.848L0.012327 36.8882C-0.0287296 37.109 0.0328934 37.3361 0.180515 37.5083C0.328136 37.6805 0.546521 37.78 0.776788 37.78H38.223C38.4533 37.78 38.6717 37.6805 38.8193 37.5083C38.967 37.3361 39.0286 37.1091 38.9876 36.8882ZM20.0494 29.9034L24.9493 25.1291H26.8898C26.9904 25.1291 27.0911 25.1306 27.1917 25.1336L19.5 32.6281L18.3765 31.5334L20.0494 29.9034ZM12.1103 25.1291H14.0507L18.4013 29.3682L17.2778 30.4629L11.8085 25.1337C11.9091 25.1306 12.0097 25.1291 12.1103 25.1291ZM1.70715 36.2662L2.29253 33.118C3.00055 29.31 6.01749 26.2455 9.86235 25.3786L18.9506 34.2339C18.9696 34.2523 18.9893 34.2696 19.0097 34.2858C19.2945 34.5122 19.7056 34.5122 19.9904 34.2858C20.0107 34.2696 20.0304 34.2523 20.0494 34.2339L29.1377 25.3786C32.9825 26.2455 35.9994 29.31 36.7075 33.118L37.2929 36.2662H1.70715Z" fill="#F9A82F"/>
<path d="M11.2649 21.1194C10.8358 21.1194 10.488 21.4583 10.488 21.8763V22.1792C10.488 22.5972 10.8358 22.9361 11.2649 22.9361C11.694 22.9361 12.0418 22.5972 12.0418 22.1792V21.8763C12.0419 21.4583 11.6941 21.1194 11.2649 21.1194Z" fill="#F9A82F"/>
</g>
<defs>
<clipPath id="clip0_88_96">
<rect width="39" height="38" fill="white"/>
</clipPath>
</defs>
</svg>
