<svg width="50" height="50" viewBox="0 0 50 50" fill="none" xmlns="http://www.w3.org/2000/svg">
<path d="M45.694 0H4.30603C1.93176 0 0 1.93176 0 4.30603V45.694C0 48.0682 1.93176 50 4.30603 50H45.694C48.0682 50 50 48.0682 50 45.694V4.30603C50 1.93176 48.0682 0 45.694 0ZM47.0703 45.694C47.0703 46.4527 46.4527 47.0703 45.694 47.0703H4.30603C3.54729 47.0703 2.92969 46.4527 2.92969 45.694V4.30603C2.92969 3.54729 3.54729 2.92969 4.30603 2.92969H45.694C46.4527 2.92969 47.0703 3.54729 47.0703 4.30603V45.694Z" fill="black"/>
<circle cx="24.5" cy="24.5" r="17" stroke="black" stroke-width="3"/>
<rect x="7" y="20" width="9" height="3" fill="black"/>
<rect x="7" y="26" width="9" height="3" fill="black"/>
<rect x="16" y="29" width="9" height="3" transform="rotate(-90 16 29)" fill="black"/>
<rect width="9" height="3" transform="matrix(-1 0 0 1 42 20)" fill="black"/>
<rect width="9" height="3" transform="matrix(-1 0 0 1 42 26)" fill="black"/>
<rect width="9" height="3" transform="matrix(4.76852e-08 -1 -1 -4.00688e-08 33 29)" fill="black"/>
</svg>
