<svg width="50" height="50" viewBox="0 0 50 50" fill="none" xmlns="http://www.w3.org/2000/svg">
<path d="M45.694 0H4.30603C1.93176 0 0 1.93176 0 4.30603V45.694C0 48.0682 1.93176 50 4.30603 50H45.694C48.0682 50 50 48.0682 50 45.694V4.30603C50 1.93176 48.0682 0 45.694 0ZM47.0703 45.694C47.0703 46.4527 46.4527 47.0703 45.694 47.0703H4.30603C3.54729 47.0703 2.92969 46.4527 2.92969 45.694V4.30603C2.92969 3.54729 3.54729 2.92969 4.30603 2.92969H45.694C46.4527 2.92969 47.0703 3.54729 47.0703 4.30603V45.694Z" fill="black"/>
<path d="M37.8416 26.9509L32.3968 8.71127C32.2708 8.28923 31.8827 8 31.4422 8H18.4409C18.0004 8 17.6124 8.28923 17.4863 8.71127L12.0415 26.9509C11.9517 27.2524 12.0093 27.5787 12.1974 27.8311C12.3855 28.0832 12.6814 28.2321 12.9961 28.2321H22.5197V37.1562H18.6064C18.0562 37.1562 17.6103 37.6024 17.6103 38.1523V41.0039C17.6103 41.5541 18.0562 42 18.6064 42H31.2767C31.8267 42 32.2728 41.5541 32.2728 41.0039V38.1523C32.2728 37.6024 31.8267 37.1562 31.2767 37.1562H27.3634V28.2319H30.2856V33.2536C29.8415 33.354 29.5094 33.7503 29.5094 34.2245C29.5094 34.7747 29.9556 35.2206 30.5055 35.2206H32.0578C32.608 35.2206 33.0539 34.7747 33.0539 34.2245C33.0539 33.7503 32.7218 33.354 32.2778 33.2536V28.2319H36.887C37.2014 28.2319 37.4977 28.0832 37.6857 27.8311C37.8735 27.5787 37.9314 27.2524 37.8416 26.9509ZM14.333 26.2397L19.183 9.99219H30.7001L35.5501 26.2397H14.333ZM30.2806 40.0078H19.6025V39.1484H30.2806V40.0078ZM24.5119 37.1562V28.2319H25.3713V37.1562H24.5119Z" fill="black"/>
</svg>
