<svg width="50" height="50" viewBox="0 0 50 50" fill="none" xmlns="http://www.w3.org/2000/svg">
<path d="M45.694 0H4.30603C1.93176 0 0 1.93176 0 4.30603V45.694C0 48.0682 1.93176 50 4.30603 50H45.694C48.0682 50 50 48.0682 50 45.694V4.30603C50 1.93176 48.0682 0 45.694 0ZM47.0703 45.694C47.0703 46.4527 46.4527 47.0703 45.694 47.0703H4.30603C3.54729 47.0703 2.92969 46.4527 2.92969 45.694V4.30603C2.92969 3.54729 3.54729 2.92969 4.30603 2.92969H45.694C46.4527 2.92969 47.0703 3.54729 47.0703 4.30603V45.694Z" fill="black"/>
<path d="M14.0049 14.9248C17.0053 12.7677 23.8063 9.1817 27.0068 12.0937C31.0074 15.7336 8.00403 23.418 14.0049 27.8668C20.0058 32.3156 31.0074 18.1602 37.0082 24.6313C43.0091 31.1023 19.5057 32.7201 27.0068 40" stroke="black" stroke-width="3"/>
</svg>
