<svg width="50" height="50" viewBox="0 0 50 50" fill="none" xmlns="http://www.w3.org/2000/svg">
<path d="M45.694 0H4.30603C1.93176 0 0 1.93176 0 4.30603V45.694C0 48.0682 1.93176 50 4.30603 50H45.694C48.0682 50 50 48.0682 50 45.694V4.30603C50 1.93176 48.0682 0 45.694 0ZM47.0703 45.694C47.0703 46.4527 46.4527 47.0703 45.694 47.0703H4.30603C3.54729 47.0703 2.92969 46.4527 2.92969 45.694V4.30603C2.92969 3.54729 3.54729 2.92969 4.30603 2.92969H45.694C46.4527 2.92969 47.0703 3.54729 47.0703 4.30603V45.694Z" fill="black"/>
<path d="M23 13.1096C26.1667 12.7763 32.5 13.0096 32.5 16.6096C32.5 21.1096 27.5 20.1096 27.5 22.6096C27.5 25.1096 32.5 26.1096 32.5 28.6096V37.1096H23M27.5 13.1096C24.3333 12.7763 18 13.0096 18 16.6096C18 21.1096 23 20.1096 23 22.6096C23 25.1096 18 26.1096 18 28.6096V37.1096H27.5" stroke="black" stroke-width="3"/>
</svg>
