<svg width="50" height="50" viewBox="0 0 50 50" fill="none" xmlns="http://www.w3.org/2000/svg">
<path fill-rule="evenodd" clip-rule="evenodd" d="M24.7989 28.6782C26.9191 28.6782 28.6379 26.9593 28.6379 24.8391C28.6379 22.7188 26.9191 21 24.7989 21C22.6786 21 20.9598 22.7188 20.9598 24.8391C20.9598 26.9593 22.6786 28.6782 24.7989 28.6782ZM24.7989 31.6782C27.4652 31.6782 29.7751 30.1524 30.9031 27.9263L41.0579 29.5389L42.7932 29.8145V28.0575V21.6207V19.8637L41.0579 20.1393L30.9032 21.752C29.7751 19.5258 27.4652 18 24.7989 18C22.0855 18 19.7412 19.5801 18.6359 21.8704L18.195 21.8004L7.73526 20.1393L6 19.8637V21.6207V28.0575V29.8145L7.73526 29.5389L18.195 27.8778L18.636 27.8078C19.7412 30.0981 22.0855 31.6782 24.7989 31.6782ZM32.3334 24.5624V25.1158L39.7932 26.3005V23.3777L32.3334 24.5624ZM16.4598 25.1158V24.5624L9 23.3777V26.3005L16.4598 25.1158Z" fill="black"/>
<path d="M45.694 0H4.30603C1.93176 0 0 1.93176 0 4.30603V45.694C0 48.0682 1.93176 50 4.30603 50H45.694C48.0682 50 50 48.0682 50 45.694V4.30603C50 1.93176 48.0682 0 45.694 0ZM47.0703 45.694C47.0703 46.4527 46.4527 47.0703 45.694 47.0703H4.30603C3.54729 47.0703 2.92969 46.4527 2.92969 45.694V4.30603C2.92969 3.54729 3.54729 2.92969 4.30603 2.92969H45.694C46.4527 2.92969 47.0703 3.54729 47.0703 4.30603V45.694Z" fill="black"/>
</svg>
