<svg width="50" height="50" viewBox="0 0 50 50" fill="none" xmlns="http://www.w3.org/2000/svg">
<path d="M45.694 0H4.30603C1.93176 0 0 1.93176 0 4.30603V45.694C0 48.0682 1.93176 50 4.30603 50H45.694C48.0682 50 50 48.0682 50 45.694V4.30603C50 1.93176 48.0682 0 45.694 0ZM47.0703 45.694C47.0703 46.4527 46.4527 47.0703 45.694 47.0703H4.30603C3.54729 47.0703 2.92969 46.4527 2.92969 45.694V4.30603C2.92969 3.54729 3.54729 2.92969 4.30603 2.92969H45.694C46.4527 2.92969 47.0703 3.54729 47.0703 4.30603V45.694Z" fill="black"/>
<g clip-path="url(#clip0_3497_46)">
<g clip-path="url(#clip1_3497_46)">
<path d="M35.9584 19.459C35.9584 16.6184 34.839 13.9608 32.8063 11.9757C30.7745 9.99141 28.0936 8.93586 25.2467 9.00302C19.5258 9.13856 14.9484 13.9075 15.0429 19.6334C15.0839 22.1422 16.028 24.5542 17.7011 26.4249C18.8384 27.6969 19.6915 29.1813 20.2015 30.7602C19.9234 30.8734 19.7271 31.146 19.7271 31.4647C19.7271 31.8848 20.0677 32.2254 20.4878 32.2254H20.5711C20.6931 32.8935 20.7555 33.5716 20.7555 34.2488V34.426V35.9998C20.7555 38.357 22.484 40.3174 24.74 40.6824V41.2393C24.74 41.6594 25.0807 42 25.5007 42C25.9207 42 26.2614 41.6594 26.2614 41.2393V40.6824C28.5169 40.3172 30.245 38.3569 30.245 35.9998V34.426V34.2473C30.245 33.571 30.3057 32.8933 30.4244 32.2254H30.4701C30.8902 32.2254 31.2308 31.8848 31.2308 31.4647C31.2308 31.1561 31.0467 30.891 30.7826 30.7717C31.2844 29.1862 32.1252 27.7174 33.2461 26.4832C34.9951 24.5572 35.9584 22.0626 35.9584 19.459ZM28.7236 35.9999C28.7236 37.7771 27.2778 39.2229 25.5007 39.2229C23.7231 39.2229 22.2769 37.7771 22.2769 35.9999V35.1868H28.7236V35.9999H28.7236ZM28.738 33.6654H22.2621C22.24 33.1834 22.1904 32.7025 22.1139 32.2254H23.7936H27.2068H28.8826C28.8079 32.7027 28.7596 33.1837 28.738 33.6654ZM24.5543 30.7041V29.1401C24.5543 28.6183 24.9789 28.1938 25.5006 28.1938C25.7532 28.1938 25.9906 28.2922 26.1686 28.4702C26.3476 28.6496 26.4462 28.8875 26.4462 29.1401V30.7041H24.5543ZM29.2152 30.7041H27.9675V29.1401C27.9675 28.5246 27.7432 27.943 27.333 27.4882L29.2467 23.9126C29.4449 23.5422 29.3053 23.0813 28.935 22.883C28.5647 22.6849 28.1036 22.8243 27.9054 23.1947L26.0153 26.7264C25.848 26.691 25.6758 26.6724 25.5007 26.6724C25.3305 26.6724 25.1643 26.6897 25.0038 26.7227L23.1157 23.1947C22.9175 22.8243 22.4564 22.6847 22.0861 22.883C21.7157 23.0812 21.5761 23.5422 21.7744 23.9126L23.6811 27.4752C23.2789 27.9144 23.0331 28.499 23.0331 29.1401V30.704H21.7746C21.2198 28.7703 20.2122 26.9507 18.8353 25.4108C17.4058 23.8125 16.5992 21.7519 16.5643 19.6085C16.4834 14.7151 20.3946 10.6397 25.2829 10.5239C27.7136 10.466 30.0072 11.3686 31.7435 13.0641C33.4805 14.7605 34.4372 17.0315 34.4372 19.459C34.4372 21.6836 33.6143 23.815 32.12 25.4605C30.7599 26.9577 29.7643 28.7603 29.2152 30.7041Z" fill="black"/>
<path d="M29.7217 18.7744C29.3016 18.7744 28.961 19.115 28.961 19.5351C28.961 19.8916 28.6709 20.1817 28.3144 20.1817C27.9578 20.1817 27.6678 19.8916 27.6678 19.5351C27.6678 19.115 27.3272 18.7744 26.9071 18.7744C26.4871 18.7744 26.1464 19.115 26.1464 19.5351C26.1464 19.8916 25.8564 20.1817 25.4998 20.1817C25.1433 20.1817 24.8532 19.8916 24.8532 19.5351C24.8532 19.115 24.5126 18.7744 24.0926 18.7744C23.6725 18.7744 23.3319 19.115 23.3319 19.5351C23.3319 19.8916 23.0418 20.1817 22.6853 20.1817C22.3287 20.1817 22.0387 19.8916 22.0387 19.5351C22.0387 19.115 21.6981 18.7744 21.278 18.7744C20.858 18.7744 20.5173 19.115 20.5173 19.5351C20.5173 20.7305 21.4899 21.703 22.6853 21.703C23.2219 21.703 23.7136 21.507 24.0926 21.183C24.4715 21.507 24.9633 21.703 25.4998 21.703C26.0364 21.703 26.5282 21.507 26.9071 21.183C27.286 21.507 27.7778 21.703 28.3144 21.703C29.5098 21.703 30.4823 20.7305 30.4823 19.5351C30.4823 19.115 30.1417 18.7744 29.7217 18.7744Z" fill="black"/>
</g>
<g clip-path="url(#clip2_3497_46)">
<path d="M218.145 58.3789L136.152 -216.289C134.254 -222.645 128.41 -227 121.777 -227H-74.0078C-80.6406 -227 -86.4844 -222.645 -88.3828 -216.289L-170.375 58.3789C-171.727 62.918 -170.859 67.832 -168.027 71.6328C-165.195 75.4297 -160.738 77.6719 -156 77.6719H-12.586V212.059H-71.5156C-79.8008 212.059 -86.5156 218.777 -86.5156 227.059V270C-86.5156 278.285 -79.8008 285 -71.5156 285H119.285C127.566 285 134.285 278.285 134.285 270V227.059C134.285 218.777 127.566 212.059 119.285 212.059H60.3554V77.668H104.359V153.289C97.6718 154.801 92.6718 160.77 92.6718 167.91C92.6718 176.195 99.3906 182.91 107.672 182.91H131.047C139.332 182.91 146.047 176.195 146.047 167.91C146.047 160.77 141.047 154.801 134.359 153.289V77.668H203.77C208.504 77.668 212.965 75.4297 215.797 71.6328C218.625 67.832 219.496 62.918 218.145 58.3789ZM-135.867 47.668L-62.8321 -197H110.602L183.637 47.668H-135.867ZM104.285 255H-56.5156V242.059H104.285V255ZM17.414 212.059V77.668H30.3554V212.059H17.414Z" fill="black"/>
</g>
</g>
<defs>
<clipPath id="clip0_3497_46">
<rect width="34" height="34" fill="white" transform="translate(7 8)"/>
</clipPath>
<clipPath id="clip1_3497_46">
<rect width="33" height="33" fill="white" transform="translate(9 9)"/>
</clipPath>
<clipPath id="clip2_3497_46">
<rect width="512" height="512" fill="white" transform="translate(-233 -227)"/>
</clipPath>
</defs>
</svg>
