<svg width="50" height="50" viewBox="0 0 50 50" fill="none" xmlns="http://www.w3.org/2000/svg">
<g clip-path="url(#clip0_38_39)">
<path d="M45.694 0H4.30603C1.93176 0 0 1.93176 0 4.30603V45.694C0 48.0682 1.93176 50 4.30603 50H45.694C48.0682 50 50 48.0682 50 45.694V4.30603C50 1.93176 48.0682 0 45.694 0ZM47.0703 45.694C47.0703 46.4527 46.4527 47.0703 45.694 47.0703H4.30603C3.54729 47.0703 2.92969 46.4527 2.92969 45.694V4.30603C2.92969 3.54729 3.54729 2.92969 4.30603 2.92969H45.694C46.4527 2.92969 47.0703 3.54729 47.0703 4.30603V45.694Z" fill="black"/>
<path d="M42.9474 20.8118H41.1743C39.2967 13.4575 32.6805 8.23975 25 8.23975C17.3195 8.23975 10.7033 13.4579 8.82568 20.8118H7.05261C6.2439 20.8118 5.58777 21.468 5.58777 22.2767V27.7233C5.58777 28.5324 6.2439 29.1882 7.05261 29.1882H8.82568C10.7033 36.5425 17.3195 41.7603 25 41.7603C32.6805 41.7603 39.2967 36.5425 41.1743 29.1882H42.9474C43.7561 29.1882 44.4122 28.5324 44.4122 27.7233V22.2767C44.4122 21.4676 43.7561 20.8118 42.9474 20.8118ZM41.4825 26.2585H39.9937C39.2845 26.2585 38.6768 26.767 38.5517 27.4651C37.373 34.0508 31.6738 38.8306 25 38.8306C18.3262 38.8306 12.627 34.0508 11.4479 27.4651C11.3232 26.7666 10.7155 26.2585 10.006 26.2585H8.51746V23.7415H10.006C10.7155 23.7415 11.3228 23.233 11.4479 22.5349C12.627 15.9492 18.3262 11.1694 25 11.1694C31.6738 11.1694 37.373 15.9492 38.5517 22.5349C38.6768 23.233 39.2845 23.7415 39.9937 23.7415H41.4825V26.2585Z" fill="black"/>
<path d="M18.5707 20.694C16.196 20.694 14.2643 22.6257 14.2643 25C14.2643 27.3743 16.196 29.306 18.5707 29.306C20.945 29.306 22.8767 27.3743 22.8767 25C22.8767 22.6257 20.945 20.694 18.5707 20.694ZM18.5707 26.3763C17.8116 26.3763 17.194 25.7587 17.194 25C17.194 24.2409 17.8116 23.6233 18.5707 23.6233C19.3294 23.6233 19.947 24.2409 19.947 25C19.947 25.7587 19.3294 26.3763 18.5707 26.3763Z" fill="black"/>
<path d="M31.4293 20.694C29.0551 20.694 27.1233 22.6257 27.1233 25C27.1233 27.3743 29.0551 29.306 31.4293 29.306C33.804 29.306 35.7357 27.3743 35.7357 25C35.7357 22.6257 33.8036 20.694 31.4293 20.694ZM31.4293 26.3763C30.6706 26.3763 30.053 25.7587 30.053 25C30.053 24.2409 30.6706 23.6233 31.4293 23.6233C32.1884 23.6233 32.806 24.2409 32.806 25C32.806 25.7587 32.1884 26.3763 31.4293 26.3763Z" fill="black"/>
</g>
<defs>
<clipPath id="clip0_38_39">
<rect width="50" height="50" fill="white"/>
</clipPath>
</defs>
</svg>
