<svg width="50" height="50" viewBox="0 0 50 50" fill="none" xmlns="http://www.w3.org/2000/svg">
<g clip-path="url(#clip0_38_50)">
<path d="M29.6875 39.5832H20.3125C18.3021 39.5832 16.6667 37.9478 16.6667 35.9375V14.0625C16.6667 12.0521 18.3021 10.4167 20.3125 10.4167H29.6875C31.6978 10.4167 33.3332 12.0521 33.3332 14.0625V35.9375C33.3332 37.9478 31.6978 39.5832 29.6875 39.5832ZM20.3125 13.5417C20.0248 13.5417 19.7917 13.7748 19.7917 14.0625V35.9375C19.7917 36.2251 20.0248 36.4582 20.3125 36.4582H29.6875C29.9751 36.4582 30.2082 36.2251 30.2082 35.9375V14.0625C30.2082 13.7748 29.9751 13.5417 29.6875 13.5417H20.3125Z" fill="black"/>
<path d="M27.6043 19.7917H22.3958C21.5332 19.7917 20.8333 19.0918 20.8333 18.2292C20.8333 17.3667 21.5332 16.6667 22.3958 16.6667H27.6043C28.4668 16.6667 29.1668 17.3667 29.1668 18.2292C29.1668 19.0918 28.4668 19.7917 27.6043 19.7917Z" fill="black"/>
<path d="M45.694 0H4.30603C1.93176 0 0 1.93176 0 4.30603V45.694C0 48.0682 1.93176 50 4.30603 50H45.694C48.0682 50 50 48.0682 50 45.694V4.30603C50 1.93176 48.0682 0 45.694 0ZM47.0703 45.694C47.0703 46.4527 46.4527 47.0703 45.694 47.0703H4.30603C3.54729 47.0703 2.92969 46.4527 2.92969 45.694V4.30603C2.92969 3.54729 3.54729 2.92969 4.30603 2.92969H45.694C46.4527 2.92969 47.0703 3.54729 47.0703 4.30603V45.694Z" fill="black"/>
</g>
<defs>
<clipPath id="clip0_38_50">
<rect width="50" height="50" fill="white"/>
</clipPath>
</defs>
</svg>
