<svg width="50" height="50" viewBox="0 0 50 50" fill="none" xmlns="http://www.w3.org/2000/svg">
<g clip-path="url(#clip0_38_60)">
<path d="M45.694 0H4.30603C1.93176 0 0 1.93176 0 4.30603V45.694C0 48.0682 1.93176 50 4.30603 50H45.694C48.0682 50 50 48.0682 50 45.694V4.30603C50 1.93176 48.0682 0 45.694 0ZM47.0703 45.694C47.0703 46.4527 46.4527 47.0703 45.694 47.0703H4.30603C3.54729 47.0703 2.92969 46.4527 2.92969 45.694V4.30603C2.92969 3.54729 3.54729 2.92969 4.30603 2.92969H45.694C46.4527 2.92969 47.0703 3.54729 47.0703 4.30603V45.694Z" fill="black"/>
<path fill-rule="evenodd" clip-rule="evenodd" d="M25.4358 11.5C25.4574 11.5 25.4788 11.5 25.5 11.5L25.5 14.5C23.9633 14.5 21.7985 14.5094 20.0311 15.0065C19.1566 15.2525 18.5128 15.5837 18.1037 15.9782C17.7388 16.3301 17.5 16.7849 17.5 17.5C17.5 19.7567 18.059 20.7883 18.6509 21.3432C19.3022 21.9538 20.2835 22.2766 21.7466 22.5204L23 22.7293V24V36.5H25.5V39.5H21.5H20V38V25.2288C18.8121 24.9396 17.5918 24.4625 16.5991 23.5318C15.191 22.2117 14.5 20.2433 14.5 17.5C14.5 15.9651 15.0737 14.7324 16.0213 13.8187C16.9247 12.9476 18.0934 12.4351 19.2189 12.1185C21.4192 11.4997 23.9621 11.4999 25.4358 11.5ZM25.5642 11.5C25.5426 11.5 25.5212 11.5 25.5 11.5L25.5 14.5C27.0367 14.5 29.2015 14.5094 30.9689 15.0065C31.8434 15.2525 32.4872 15.5837 32.8963 15.9782C33.2612 16.3301 33.5 16.7849 33.5 17.5C33.5 19.7567 32.941 20.7883 32.3491 21.3432C31.6978 21.9538 30.7165 22.2766 29.2534 22.5204L28 22.7293V24V36.5H25.5V39.5H29.5H31V38V25.2288C32.1879 24.9396 33.4082 24.4625 34.4009 23.5318C35.809 22.2117 36.5 20.2433 36.5 17.5C36.5 15.9651 35.9263 14.7324 34.9787 13.8187C34.0753 12.9476 32.9066 12.4351 31.7811 12.1185C29.5808 11.4997 27.0379 11.4999 25.5642 11.5Z" fill="black"/>
</g>
<defs>
<clipPath id="clip0_38_60">
<rect width="50" height="50" fill="white"/>
</clipPath>
</defs>
</svg>
